<svg width="1020" height="288" viewBox="0 0 1020 288" fill="none" xmlns="http://www.w3.org/2000/svg">
<g filter="url(#filter0_d)">
<rect x="32" y="2" width="140" height="48" fill="#E8E8E8"/>
</g>
<path d="M63.032 32.224H68.888V34H60.848V17.272H63.032V32.224ZM70.3914 27.376C70.3914 26.032 70.6634 24.856 71.2074 23.848C71.7514 22.824 72.4954 22.032 73.4394 21.472C74.3994 20.912 75.4634 20.632 76.6314 20.632C77.7834 20.632 78.7834 20.88 79.6314 21.376C80.4794 21.872 81.1114 22.496 81.5274 23.248V20.848H83.7354V34H81.5274V31.552C81.0954 32.32 80.4474 32.96 79.5834 33.472C78.7354 33.968 77.7434 34.216 76.6074 34.216C75.4394 34.216 74.3834 33.928 73.4394 33.352C72.4954 32.776 71.7514 31.968 71.2074 30.928C70.6634 29.888 70.3914 28.704 70.3914 27.376ZM81.5274 27.4C81.5274 26.408 81.3274 25.544 80.9274 24.808C80.5274 24.072 79.9834 23.512 79.2954 23.128C78.6234 22.728 77.8794 22.528 77.0634 22.528C76.2474 22.528 75.5034 22.72 74.8314 23.104C74.1594 23.488 73.6234 24.048 73.2234 24.784C72.8234 25.52 72.6234 26.384 72.6234 27.376C72.6234 28.384 72.8234 29.264 73.2234 30.016C73.6234 30.752 74.1594 31.32 74.8314 31.72C75.5034 32.104 76.2474 32.296 77.0634 32.296C77.8794 32.296 78.6234 32.104 79.2954 31.72C79.9834 31.32 80.5274 30.752 80.9274 30.016C81.3274 29.264 81.5274 28.392 81.5274 27.4ZM89.6101 22.984C89.9941 22.232 90.5381 21.648 91.2421 21.232C91.9621 20.816 92.8341 20.608 93.8581 20.608V22.864H93.2821C90.8341 22.864 89.6101 24.192 89.6101 26.848V34H87.4261V20.848H89.6101V22.984ZM95.5633 27.376C95.5633 26.032 95.8353 24.856 96.3793 23.848C96.9233 22.824 97.6673 22.032 98.6113 21.472C99.5713 20.912 100.635 20.632 101.803 20.632C102.955 20.632 103.955 20.88 104.803 21.376C105.651 21.872 106.283 22.496 106.699 23.248V20.848H108.907V34H106.699V31.552C106.267 32.32 105.619 32.96 104.755 33.472C103.907 33.968 102.915 34.216 101.779 34.216C100.611 34.216 99.5553 33.928 98.6113 33.352C97.6673 32.776 96.9233 31.968 96.3793 30.928C95.8353 29.888 95.5633 28.704 95.5633 27.376ZM106.699 27.4C106.699 26.408 106.499 25.544 106.099 24.808C105.699 24.072 105.155 23.512 104.467 23.128C103.795 22.728 103.051 22.528 102.235 22.528C101.419 22.528 100.675 22.72 100.003 23.104C99.3313 23.488 98.7953 24.048 98.3953 24.784C97.9953 25.52 97.7953 26.384 97.7953 27.376C97.7953 28.384 97.9953 29.264 98.3953 30.016C98.7953 30.752 99.3313 31.32 100.003 31.72C100.675 32.104 101.419 32.296 102.235 32.296C103.051 32.296 103.795 32.104 104.467 31.72C105.155 31.32 105.699 30.752 106.099 30.016C106.499 29.264 106.699 28.392 106.699 27.4ZM117.494 31.984L121.574 20.848H123.902L118.742 34H116.198L111.038 20.848H113.39L117.494 31.984ZM138.051 26.92C138.051 27.336 138.027 27.776 137.979 28.24H127.467C127.547 29.536 127.987 30.552 128.787 31.288C129.603 32.008 130.587 32.368 131.739 32.368C132.683 32.368 133.467 32.152 134.091 31.72C134.731 31.272 135.179 30.68 135.435 29.944H137.787C137.435 31.208 136.731 32.24 135.675 33.04C134.619 33.824 133.307 34.216 131.739 34.216C130.491 34.216 129.371 33.936 128.379 33.376C127.403 32.816 126.635 32.024 126.075 31C125.515 29.96 125.235 28.76 125.235 27.4C125.235 26.04 125.507 24.848 126.051 23.824C126.595 22.8 127.355 22.016 128.331 21.472C129.323 20.912 130.459 20.632 131.739 20.632C132.987 20.632 134.091 20.904 135.051 21.448C136.011 21.992 136.747 22.744 137.259 23.704C137.787 24.648 138.051 25.72 138.051 26.92ZM135.795 26.464C135.795 25.632 135.611 24.92 135.243 24.328C134.875 23.72 134.371 23.264 133.731 22.96C133.107 22.64 132.411 22.48 131.643 22.48C130.539 22.48 129.595 22.832 128.811 23.536C128.043 24.24 127.603 25.216 127.491 26.464H135.795ZM143.118 16.24V34H140.934V16.24H143.118Z" fill="#555555"/>
<g filter="url(#filter1_d)">
<rect x="193" y="2" width="152" height="48" fill="#E8E8E8"/>
</g>
<path d="M255.672 17.272L249.36 34H246.84L240.528 17.272H242.856L248.112 31.696L253.368 17.272H255.672ZM269.731 20.848V34H267.547V32.056C267.131 32.728 266.547 33.256 265.795 33.64C265.059 34.008 264.243 34.192 263.347 34.192C262.323 34.192 261.403 33.984 260.587 33.568C259.771 33.136 259.123 32.496 258.643 31.648C258.179 30.8 257.947 29.768 257.947 28.552V20.848H260.107V28.264C260.107 29.56 260.435 30.56 261.091 31.264C261.747 31.952 262.643 32.296 263.779 32.296C264.947 32.296 265.867 31.936 266.539 31.216C267.211 30.496 267.547 29.448 267.547 28.072V20.848H269.731ZM285.418 26.92C285.418 27.336 285.394 27.776 285.346 28.24H274.834C274.914 29.536 275.354 30.552 276.154 31.288C276.97 32.008 277.954 32.368 279.106 32.368C280.05 32.368 280.834 32.152 281.458 31.72C282.098 31.272 282.546 30.68 282.802 29.944H285.154C284.802 31.208 284.098 32.24 283.042 33.04C281.986 33.824 280.674 34.216 279.106 34.216C277.858 34.216 276.738 33.936 275.746 33.376C274.77 32.816 274.002 32.024 273.442 31C272.882 29.96 272.602 28.76 272.602 27.4C272.602 26.04 272.874 24.848 273.418 23.824C273.962 22.8 274.722 22.016 275.698 21.472C276.69 20.912 277.826 20.632 279.106 20.632C280.354 20.632 281.458 20.904 282.418 21.448C283.378 21.992 284.114 22.744 284.626 23.704C285.154 24.648 285.418 25.72 285.418 26.92ZM283.162 26.464C283.162 25.632 282.978 24.92 282.61 24.328C282.242 23.72 281.738 23.264 281.098 22.96C280.474 22.64 279.778 22.48 279.01 22.48C277.906 22.48 276.962 22.832 276.178 23.536C275.41 24.24 274.97 25.216 274.858 26.464H283.162ZM288.997 34.144C288.581 34.144 288.229 34 287.941 33.712C287.653 33.424 287.509 33.072 287.509 32.656C287.509 32.24 287.653 31.888 287.941 31.6C288.229 31.312 288.581 31.168 288.997 31.168C289.397 31.168 289.733 31.312 290.005 31.6C290.293 31.888 290.437 32.24 290.437 32.656C290.437 33.072 290.293 33.424 290.005 33.712C289.733 34 289.397 34.144 288.997 34.144ZM294.516 18.712C294.1 18.712 293.748 18.568 293.46 18.28C293.188 17.992 293.052 17.64 293.052 17.224C293.052 16.808 293.188 16.456 293.46 16.168C293.748 15.88 294.1 15.736 294.516 15.736C294.932 15.736 295.276 15.88 295.548 16.168C295.836 16.456 295.98 16.808 295.98 17.224C295.98 17.64 295.836 17.992 295.548 18.28C295.276 18.568 294.932 18.712 294.516 18.712ZM295.596 36.856C295.596 38.024 295.3 38.88 294.708 39.424C294.116 39.968 293.252 40.24 292.116 40.24H290.844V38.392H291.756C292.364 38.392 292.788 38.272 293.028 38.032C293.284 37.792 293.412 37.384 293.412 36.808V20.848H295.596V36.856ZM303.949 34.216C302.941 34.216 302.037 34.048 301.237 33.712C300.437 33.36 299.805 32.88 299.341 32.272C298.877 31.648 298.621 30.936 298.573 30.136H300.829C300.893 30.792 301.197 31.328 301.741 31.744C302.301 32.16 303.029 32.368 303.925 32.368C304.757 32.368 305.413 32.184 305.893 31.816C306.373 31.448 306.613 30.984 306.613 30.424C306.613 29.848 306.357 29.424 305.845 29.152C305.333 28.864 304.541 28.584 303.469 28.312C302.493 28.056 301.693 27.8 301.069 27.544C300.461 27.272 299.933 26.88 299.485 26.368C299.053 25.84 298.837 25.152 298.837 24.304C298.837 23.632 299.037 23.016 299.437 22.456C299.837 21.896 300.405 21.456 301.141 21.136C301.877 20.8 302.717 20.632 303.661 20.632C305.117 20.632 306.293 21 307.189 21.736C308.085 22.472 308.565 23.48 308.629 24.76H306.445C306.397 24.072 306.117 23.52 305.605 23.104C305.109 22.688 304.437 22.48 303.589 22.48C302.805 22.48 302.181 22.648 301.717 22.984C301.253 23.32 301.021 23.76 301.021 24.304C301.021 24.736 301.157 25.096 301.429 25.384C301.717 25.656 302.069 25.88 302.485 26.056C302.917 26.216 303.509 26.4 304.261 26.608C305.205 26.864 305.973 27.12 306.565 27.376C307.157 27.616 307.661 27.984 308.077 28.48C308.509 28.976 308.733 29.624 308.749 30.424C308.749 31.144 308.549 31.792 308.149 32.368C307.749 32.944 307.181 33.4 306.445 33.736C305.725 34.056 304.893 34.216 303.949 34.216Z" fill="#555555"/>
<g filter="url(#filter2_d)">
<rect x="365" y="2" width="142" height="48" fill="#E8E8E8"/>
</g>
<path d="M417.52 22.12C417.056 21.144 416.384 20.392 415.504 19.864C414.624 19.32 413.6 19.048 412.432 19.048C411.264 19.048 410.208 19.32 409.264 19.864C408.336 20.392 407.6 21.16 407.056 22.168C406.528 23.16 406.264 24.312 406.264 25.624C406.264 26.936 406.528 28.088 407.056 29.08C407.6 30.072 408.336 30.84 409.264 31.384C410.208 31.912 411.264 32.176 412.432 32.176C414.064 32.176 415.408 31.688 416.464 30.712C417.52 29.736 418.136 28.416 418.312 26.752H411.64V24.976H420.64V26.656C420.512 28.032 420.08 29.296 419.344 30.448C418.608 31.584 417.64 32.488 416.44 33.16C415.24 33.816 413.904 34.144 412.432 34.144C410.88 34.144 409.464 33.784 408.184 33.064C406.904 32.328 405.888 31.312 405.136 30.016C404.4 28.72 404.032 27.256 404.032 25.624C404.032 23.992 404.4 22.528 405.136 21.232C405.888 19.92 406.904 18.904 408.184 18.184C409.464 17.448 410.88 17.08 412.432 17.08C414.208 17.08 415.776 17.52 417.136 18.4C418.512 19.28 419.512 20.52 420.136 22.12H417.52ZM424.656 18.712C424.24 18.712 423.888 18.568 423.6 18.28C423.312 17.992 423.168 17.64 423.168 17.224C423.168 16.808 423.312 16.456 423.6 16.168C423.888 15.88 424.24 15.736 424.656 15.736C425.056 15.736 425.392 15.88 425.664 16.168C425.952 16.456 426.096 16.808 426.096 17.224C426.096 17.64 425.952 17.992 425.664 18.28C425.392 18.568 425.056 18.712 424.656 18.712ZM425.712 20.848V34H423.528V20.848H425.712ZM432.098 22.648V30.4C432.098 31.04 432.234 31.496 432.506 31.768C432.778 32.024 433.25 32.152 433.922 32.152H435.53V34H433.562C432.346 34 431.434 33.72 430.826 33.16C430.218 32.6 429.914 31.68 429.914 30.4V22.648H428.21V20.848H429.914V17.536H432.098V20.848H435.53V22.648H432.098ZM444.704 20.608C445.696 20.608 446.592 20.824 447.392 21.256C448.192 21.672 448.816 22.304 449.264 23.152C449.728 24 449.96 25.032 449.96 26.248V34H447.8V26.56C447.8 25.248 447.472 24.248 446.816 23.56C446.16 22.856 445.264 22.504 444.128 22.504C442.976 22.504 442.056 22.864 441.368 23.584C440.696 24.304 440.36 25.352 440.36 26.728V34H438.176V16.24H440.36V22.72C440.792 22.048 441.384 21.528 442.136 21.16C442.904 20.792 443.76 20.608 444.704 20.608ZM465.192 20.848V34H463.008V32.056C462.592 32.728 462.008 33.256 461.256 33.64C460.52 34.008 459.704 34.192 458.808 34.192C457.784 34.192 456.864 33.984 456.048 33.568C455.232 33.136 454.584 32.496 454.104 31.648C453.64 30.8 453.408 29.768 453.408 28.552V20.848H455.568V28.264C455.568 29.56 455.896 30.56 456.552 31.264C457.208 31.952 458.104 32.296 459.24 32.296C460.408 32.296 461.328 31.936 462 31.216C462.672 30.496 463.008 29.448 463.008 28.072V20.848H465.192ZM471.063 23.296C471.511 22.512 472.167 21.872 473.031 21.376C473.895 20.88 474.879 20.632 475.983 20.632C477.167 20.632 478.231 20.912 479.175 21.472C480.119 22.032 480.863 22.824 481.407 23.848C481.951 24.856 482.223 26.032 482.223 27.376C482.223 28.704 481.951 29.888 481.407 30.928C480.863 31.968 480.111 32.776 479.151 33.352C478.207 33.928 477.151 34.216 475.983 34.216C474.847 34.216 473.847 33.968 472.983 33.472C472.135 32.976 471.495 32.344 471.063 31.576V34H468.879V16.24H471.063V23.296ZM479.991 27.376C479.991 26.384 479.791 25.52 479.391 24.784C478.991 24.048 478.447 23.488 477.759 23.104C477.087 22.72 476.343 22.528 475.527 22.528C474.727 22.528 473.983 22.728 473.295 23.128C472.623 23.512 472.079 24.08 471.663 24.832C471.263 25.568 471.063 26.424 471.063 27.4C471.063 28.392 471.263 29.264 471.663 30.016C472.079 30.752 472.623 31.32 473.295 31.72C473.983 32.104 474.727 32.296 475.527 32.296C476.343 32.296 477.087 32.104 477.759 31.72C478.447 31.32 478.991 30.752 479.391 30.016C479.791 29.264 479.991 28.384 479.991 27.376Z" fill="#555555"/>
<g filter="url(#filter3_d)">
<rect x="525" y="2" width="142" height="48" fill="#E8E8E8"/>
</g>
<path d="M573.656 34L569.672 27.16H567.032V34H564.848V17.272H570.248C571.512 17.272 572.576 17.488 573.44 17.92C574.32 18.352 574.976 18.936 575.408 19.672C575.84 20.408 576.056 21.248 576.056 22.192C576.056 23.344 575.72 24.36 575.048 25.24C574.392 26.12 573.4 26.704 572.072 26.992L576.272 34H573.656ZM567.032 25.408H570.248C571.432 25.408 572.32 25.12 572.912 24.544C573.504 23.952 573.8 23.168 573.8 22.192C573.8 21.2 573.504 20.432 572.912 19.888C572.336 19.344 571.448 19.072 570.248 19.072H567.032V25.408ZM591.45 26.92C591.45 27.336 591.426 27.776 591.378 28.24H580.866C580.946 29.536 581.386 30.552 582.186 31.288C583.002 32.008 583.986 32.368 585.138 32.368C586.082 32.368 586.866 32.152 587.49 31.72C588.13 31.272 588.578 30.68 588.834 29.944H591.186C590.834 31.208 590.13 32.24 589.074 33.04C588.018 33.824 586.706 34.216 585.138 34.216C583.89 34.216 582.77 33.936 581.778 33.376C580.802 32.816 580.034 32.024 579.474 31C578.914 29.96 578.634 28.76 578.634 27.4C578.634 26.04 578.906 24.848 579.45 23.824C579.994 22.8 580.754 22.016 581.73 21.472C582.722 20.912 583.858 20.632 585.138 20.632C586.386 20.632 587.49 20.904 588.45 21.448C589.41 21.992 590.146 22.744 590.658 23.704C591.186 24.648 591.45 25.72 591.45 26.92ZM589.194 26.464C589.194 25.632 589.01 24.92 588.642 24.328C588.274 23.72 587.77 23.264 587.13 22.96C586.506 22.64 585.81 22.48 585.042 22.48C583.938 22.48 582.994 22.832 582.21 23.536C581.442 24.24 581.002 25.216 580.89 26.464H589.194ZM593.516 27.376C593.516 26.032 593.788 24.856 594.332 23.848C594.876 22.824 595.62 22.032 596.564 21.472C597.524 20.912 598.588 20.632 599.756 20.632C600.908 20.632 601.908 20.88 602.756 21.376C603.604 21.872 604.236 22.496 604.652 23.248V20.848H606.86V34H604.652V31.552C604.22 32.32 603.572 32.96 602.708 33.472C601.86 33.968 600.868 34.216 599.732 34.216C598.564 34.216 597.508 33.928 596.564 33.352C595.62 32.776 594.876 31.968 594.332 30.928C593.788 29.888 593.516 28.704 593.516 27.376ZM604.652 27.4C604.652 26.408 604.452 25.544 604.052 24.808C603.652 24.072 603.108 23.512 602.42 23.128C601.748 22.728 601.004 22.528 600.188 22.528C599.372 22.528 598.628 22.72 597.956 23.104C597.284 23.488 596.748 24.048 596.348 24.784C595.948 25.52 595.748 26.384 595.748 27.376C595.748 28.384 595.948 29.264 596.348 30.016C596.748 30.752 597.284 31.32 597.956 31.72C598.628 32.104 599.372 32.296 600.188 32.296C601.004 32.296 601.748 32.104 602.42 31.72C603.108 31.32 603.652 30.752 604.052 30.016C604.452 29.264 604.652 28.392 604.652 27.4ZM609.735 27.4C609.735 26.04 610.007 24.856 610.551 23.848C611.095 22.824 611.847 22.032 612.807 21.472C613.783 20.912 614.895 20.632 616.143 20.632C617.759 20.632 619.087 21.024 620.127 21.808C621.183 22.592 621.879 23.68 622.215 25.072H619.863C619.639 24.272 619.199 23.64 618.543 23.176C617.903 22.712 617.103 22.48 616.143 22.48C614.895 22.48 613.887 22.912 613.119 23.776C612.351 24.624 611.967 25.832 611.967 27.4C611.967 28.984 612.351 30.208 613.119 31.072C613.887 31.936 614.895 32.368 616.143 32.368C617.103 32.368 617.903 32.144 618.543 31.696C619.183 31.248 619.623 30.608 619.863 29.776H622.215C621.863 31.12 621.159 32.2 620.103 33.016C619.047 33.816 617.727 34.216 616.143 34.216C614.895 34.216 613.783 33.936 612.807 33.376C611.847 32.816 611.095 32.024 610.551 31C610.007 29.976 609.735 28.776 609.735 27.4ZM627.793 22.648V30.4C627.793 31.04 627.929 31.496 628.201 31.768C628.473 32.024 628.945 32.152 629.617 32.152H631.225V34H629.257C628.041 34 627.129 33.72 626.521 33.16C625.913 32.6 625.609 31.68 625.609 30.4V22.648H623.905V20.848H625.609V17.536H627.793V20.848H631.225V22.648H627.793Z" fill="#555555"/>
<g filter="url(#filter4_d)">
<rect x="685" y="2" width="142" height="48" fill="#E8E8E8"/>
</g>
<path d="M730 34H727.816L719.032 20.68V34H716.848V17.248H719.032L727.816 30.544V17.248H730V34ZM739.459 34.216C738.227 34.216 737.107 33.936 736.099 33.376C735.107 32.816 734.323 32.024 733.747 31C733.187 29.96 732.907 28.76 732.907 27.4C732.907 26.056 733.195 24.872 733.771 23.848C734.363 22.808 735.163 22.016 736.171 21.472C737.179 20.912 738.307 20.632 739.555 20.632C740.803 20.632 741.931 20.912 742.939 21.472C743.947 22.016 744.739 22.8 745.315 23.824C745.907 24.848 746.203 26.04 746.203 27.4C746.203 28.76 745.899 29.96 745.291 31C744.699 32.024 743.891 32.816 742.867 33.376C741.843 33.936 740.707 34.216 739.459 34.216ZM739.459 32.296C740.243 32.296 740.979 32.112 741.667 31.744C742.355 31.376 742.907 30.824 743.323 30.088C743.755 29.352 743.971 28.456 743.971 27.4C743.971 26.344 743.763 25.448 743.347 24.712C742.931 23.976 742.387 23.432 741.715 23.08C741.043 22.712 740.315 22.528 739.531 22.528C738.731 22.528 737.995 22.712 737.323 23.08C736.667 23.432 736.139 23.976 735.739 24.712C735.339 25.448 735.139 26.344 735.139 27.4C735.139 28.472 735.331 29.376 735.715 30.112C736.115 30.848 736.643 31.4 737.299 31.768C737.955 32.12 738.675 32.296 739.459 32.296ZM748.259 27.376C748.259 26.032 748.531 24.856 749.075 23.848C749.619 22.824 750.363 22.032 751.307 21.472C752.267 20.912 753.339 20.632 754.523 20.632C755.547 20.632 756.499 20.872 757.379 21.352C758.259 21.816 758.931 22.432 759.395 23.2V16.24H761.603V34H759.395V31.528C758.963 32.312 758.323 32.96 757.475 33.472C756.627 33.968 755.635 34.216 754.499 34.216C753.331 34.216 752.267 33.928 751.307 33.352C750.363 32.776 749.619 31.968 749.075 30.928C748.531 29.888 748.259 28.704 748.259 27.376ZM759.395 27.4C759.395 26.408 759.195 25.544 758.795 24.808C758.395 24.072 757.851 23.512 757.163 23.128C756.491 22.728 755.747 22.528 754.931 22.528C754.115 22.528 753.371 22.72 752.699 23.104C752.027 23.488 751.491 24.048 751.091 24.784C750.691 25.52 750.491 26.384 750.491 27.376C750.491 28.384 750.691 29.264 751.091 30.016C751.491 30.752 752.027 31.32 752.699 31.72C753.371 32.104 754.115 32.296 754.931 32.296C755.747 32.296 756.491 32.104 757.163 31.72C757.851 31.32 758.395 30.752 758.795 30.016C759.195 29.264 759.395 28.392 759.395 27.4ZM777.293 26.92C777.293 27.336 777.269 27.776 777.221 28.24H766.709C766.789 29.536 767.229 30.552 768.029 31.288C768.845 32.008 769.829 32.368 770.981 32.368C771.925 32.368 772.709 32.152 773.333 31.72C773.973 31.272 774.421 30.68 774.677 29.944H777.029C776.677 31.208 775.973 32.24 774.917 33.04C773.861 33.824 772.549 34.216 770.981 34.216C769.733 34.216 768.613 33.936 767.621 33.376C766.645 32.816 765.877 32.024 765.317 31C764.757 29.96 764.477 28.76 764.477 27.4C764.477 26.04 764.749 24.848 765.293 23.824C765.837 22.8 766.597 22.016 767.573 21.472C768.565 20.912 769.701 20.632 770.981 20.632C772.229 20.632 773.333 20.904 774.293 21.448C775.253 21.992 775.989 22.744 776.501 23.704C777.029 24.648 777.293 25.72 777.293 26.92ZM775.037 26.464C775.037 25.632 774.853 24.92 774.485 24.328C774.117 23.72 773.613 23.264 772.973 22.96C772.349 22.64 771.653 22.48 770.885 22.48C769.781 22.48 768.837 22.832 768.053 23.536C767.285 24.24 766.845 25.216 766.733 26.464H775.037ZM780.872 34.144C780.456 34.144 780.104 34 779.816 33.712C779.528 33.424 779.384 33.072 779.384 32.656C779.384 32.24 779.528 31.888 779.816 31.6C780.104 31.312 780.456 31.168 780.872 31.168C781.272 31.168 781.608 31.312 781.88 31.6C782.168 31.888 782.312 32.24 782.312 32.656C782.312 33.072 782.168 33.424 781.88 33.712C781.608 34 781.272 34.144 780.872 34.144ZM786.391 18.712C785.975 18.712 785.623 18.568 785.335 18.28C785.063 17.992 784.927 17.64 784.927 17.224C784.927 16.808 785.063 16.456 785.335 16.168C785.623 15.88 785.975 15.736 786.391 15.736C786.807 15.736 787.151 15.88 787.423 16.168C787.711 16.456 787.855 16.808 787.855 17.224C787.855 17.64 787.711 17.992 787.423 18.28C787.151 18.568 786.807 18.712 786.391 18.712ZM787.471 36.856C787.471 38.024 787.175 38.88 786.583 39.424C785.991 39.968 785.127 40.24 783.991 40.24H782.719V38.392H783.631C784.239 38.392 784.663 38.272 784.903 38.032C785.159 37.792 785.287 37.384 785.287 36.808V20.848H787.471V36.856ZM795.824 34.216C794.816 34.216 793.912 34.048 793.112 33.712C792.312 33.36 791.68 32.88 791.216 32.272C790.752 31.648 790.496 30.936 790.448 30.136H792.704C792.768 30.792 793.072 31.328 793.616 31.744C794.176 32.16 794.904 32.368 795.8 32.368C796.632 32.368 797.288 32.184 797.768 31.816C798.248 31.448 798.488 30.984 798.488 30.424C798.488 29.848 798.232 29.424 797.72 29.152C797.208 28.864 796.416 28.584 795.344 28.312C794.368 28.056 793.568 27.8 792.944 27.544C792.336 27.272 791.808 26.88 791.36 26.368C790.928 25.84 790.712 25.152 790.712 24.304C790.712 23.632 790.912 23.016 791.312 22.456C791.712 21.896 792.28 21.456 793.016 21.136C793.752 20.8 794.592 20.632 795.536 20.632C796.992 20.632 798.168 21 799.064 21.736C799.96 22.472 800.44 23.48 800.504 24.76H798.32C798.272 24.072 797.992 23.52 797.48 23.104C796.984 22.688 796.312 22.48 795.464 22.48C794.68 22.48 794.056 22.648 793.592 22.984C793.128 23.32 792.896 23.76 792.896 24.304C792.896 24.736 793.032 25.096 793.304 25.384C793.592 25.656 793.944 25.88 794.36 26.056C794.792 26.216 795.384 26.4 796.136 26.608C797.08 26.864 797.848 27.12 798.44 27.376C799.032 27.616 799.536 27.984 799.952 28.48C800.384 28.976 800.608 29.624 800.624 30.424C800.624 31.144 800.424 31.792 800.024 32.368C799.624 32.944 799.056 33.4 798.32 33.736C797.6 34.056 796.768 34.216 795.824 34.216Z" fill="#555555"/>
<g filter="url(#filter5_d)">
<rect x="845" y="2" width="142" height="48" fill="#E8E8E8"/>
</g>
<path d="M895.816 17.392V34H893.632V21.616L888.112 34H886.576L881.032 21.592V34H878.848V17.392H881.2L887.344 31.12L893.488 17.392H895.816ZM910.848 20.848L902.928 40.192H900.672L903.264 33.856L897.96 20.848H900.384L904.512 31.504L908.592 20.848H910.848ZM918.347 34.168C917.243 34.168 916.251 33.976 915.371 33.592C914.507 33.192 913.827 32.648 913.331 31.96C912.835 31.256 912.579 30.448 912.563 29.536H914.891C914.971 30.32 915.291 30.984 915.851 31.528C916.427 32.056 917.259 32.32 918.347 32.32C919.387 32.32 920.203 32.064 920.795 31.552C921.403 31.024 921.707 30.352 921.707 29.536C921.707 28.896 921.531 28.376 921.179 27.976C920.827 27.576 920.387 27.272 919.859 27.064C919.331 26.856 918.619 26.632 917.723 26.392C916.619 26.104 915.731 25.816 915.059 25.528C914.403 25.24 913.835 24.792 913.355 24.184C912.891 23.56 912.659 22.728 912.659 21.688C912.659 20.776 912.891 19.968 913.355 19.264C913.819 18.56 914.467 18.016 915.299 17.632C916.147 17.248 917.115 17.056 918.203 17.056C919.771 17.056 921.051 17.448 922.043 18.232C923.051 19.016 923.619 20.056 923.747 21.352H921.347C921.267 20.712 920.931 20.152 920.339 19.672C919.747 19.176 918.963 18.928 917.987 18.928C917.075 18.928 916.331 19.168 915.755 19.648C915.179 20.112 914.891 20.768 914.891 21.616C914.891 22.224 915.059 22.72 915.395 23.104C915.747 23.488 916.171 23.784 916.667 23.992C917.179 24.184 917.891 24.408 918.803 24.664C919.907 24.968 920.795 25.272 921.467 25.576C922.139 25.864 922.715 26.32 923.195 26.944C923.675 27.552 923.915 28.384 923.915 29.44C923.915 30.256 923.699 31.024 923.267 31.744C922.835 32.464 922.195 33.048 921.347 33.496C920.499 33.944 919.499 34.168 918.347 34.168ZM940.545 37.168L937.209 33.832C936.393 34.056 935.561 34.168 934.713 34.168C933.161 34.168 931.745 33.808 930.465 33.088C929.185 32.352 928.169 31.336 927.417 30.04C926.681 28.728 926.313 27.256 926.313 25.624C926.313 23.992 926.681 22.528 927.417 21.232C928.169 19.92 929.185 18.904 930.465 18.184C931.745 17.448 933.161 17.08 934.713 17.08C936.281 17.08 937.705 17.448 938.985 18.184C940.265 18.904 941.273 19.912 942.009 21.208C942.745 22.504 943.113 23.976 943.113 25.624C943.113 27.224 942.761 28.664 942.057 29.944C941.353 31.224 940.385 32.232 939.153 32.968L943.377 37.168H940.545ZM928.545 25.624C928.545 26.952 928.809 28.12 929.337 29.128C929.881 30.136 930.617 30.912 931.545 31.456C932.489 32 933.545 32.272 934.713 32.272C935.881 32.272 936.929 32 937.857 31.456C938.801 30.912 939.537 30.136 940.065 29.128C940.609 28.12 940.881 26.952 940.881 25.624C940.881 24.28 940.609 23.112 940.065 22.12C939.537 21.112 938.809 20.336 937.881 19.792C936.953 19.248 935.897 18.976 934.713 18.976C933.529 18.976 932.473 19.248 931.545 19.792C930.617 20.336 929.881 21.112 929.337 22.12C928.809 23.112 928.545 24.28 928.545 25.624ZM948.227 32.224H954.083V34H946.043V17.272H948.227V32.224Z" fill="#555555"/>
<g filter="url(#filter6_d)">
<rect x="361" y="157" width="140" height="48" fill="#E8E8E8"/>
</g>
<path d="M421.032 177.168C421.032 178.56 420.552 179.72 419.592 180.648C418.648 181.56 417.2 182.016 415.248 182.016H412.032V189H409.848V172.272H415.248C417.136 172.272 418.568 172.728 419.544 173.64C420.536 174.552 421.032 175.728 421.032 177.168ZM415.248 180.216C416.464 180.216 417.36 179.952 417.936 179.424C418.512 178.896 418.8 178.144 418.8 177.168C418.8 175.104 417.616 174.072 415.248 174.072H412.032V180.216H415.248ZM436.634 172.272V189H434.45V181.416H425.93V189H423.746V172.272H425.93V179.616H434.45V172.272H436.634ZM451.548 177.168C451.548 178.56 451.068 179.72 450.108 180.648C449.164 181.56 447.716 182.016 445.764 182.016H442.548V189H440.364V172.272H445.764C447.652 172.272 449.084 172.728 450.06 173.64C451.052 174.552 451.548 175.728 451.548 177.168ZM445.764 180.216C446.98 180.216 447.876 179.952 448.452 179.424C449.028 178.896 449.316 178.144 449.316 177.168C449.316 175.104 448.132 174.072 445.764 174.072H442.548V180.216H445.764Z" fill="#555555"/>
<g filter="url(#filter7_d)">
<rect x="195" y="157" width="140" height="48" fill="#E8E8E8"/>
</g>
<path d="M253.736 185.28H246.44L245.096 189H242.792L248.84 172.368H251.36L257.384 189H255.08L253.736 185.28ZM253.112 183.504L250.088 175.056L247.064 183.504H253.112ZM261.196 173.712C260.78 173.712 260.428 173.568 260.14 173.28C259.868 172.992 259.732 172.64 259.732 172.224C259.732 171.808 259.868 171.456 260.14 171.168C260.428 170.88 260.78 170.736 261.196 170.736C261.612 170.736 261.956 170.88 262.228 171.168C262.516 171.456 262.66 171.808 262.66 172.224C262.66 172.64 262.516 172.992 262.228 173.28C261.956 173.568 261.612 173.712 261.196 173.712ZM262.276 191.856C262.276 193.024 261.98 193.88 261.388 194.424C260.796 194.968 259.932 195.24 258.796 195.24H257.524V193.392H258.436C259.044 193.392 259.468 193.272 259.708 193.032C259.964 192.792 260.092 192.384 260.092 191.808V175.848H262.276V191.856ZM265.157 182.376C265.157 181.032 265.429 179.856 265.973 178.848C266.517 177.824 267.261 177.032 268.205 176.472C269.165 175.912 270.229 175.632 271.397 175.632C272.549 175.632 273.549 175.88 274.397 176.376C275.245 176.872 275.877 177.496 276.293 178.248V175.848H278.501V189H276.293V186.552C275.861 187.32 275.213 187.96 274.349 188.472C273.501 188.968 272.509 189.216 271.373 189.216C270.205 189.216 269.149 188.928 268.205 188.352C267.261 187.776 266.517 186.968 265.973 185.928C265.429 184.888 265.157 183.704 265.157 182.376ZM276.293 182.4C276.293 181.408 276.093 180.544 275.693 179.808C275.293 179.072 274.749 178.512 274.061 178.128C273.389 177.728 272.645 177.528 271.829 177.528C271.013 177.528 270.269 177.72 269.597 178.104C268.925 178.488 268.389 179.048 267.989 179.784C267.589 180.52 267.389 181.384 267.389 182.376C267.389 183.384 267.589 184.264 267.989 185.016C268.389 185.752 268.925 186.32 269.597 186.72C270.269 187.104 271.013 187.296 271.829 187.296C272.645 187.296 273.389 187.104 274.061 186.72C274.749 186.32 275.293 185.752 275.693 185.016C276.093 184.264 276.293 183.392 276.293 182.4ZM289.056 189L285.936 184.104L282.936 189H280.656L284.904 182.472L280.656 175.848H283.128L286.248 180.72L289.224 175.848H291.504L287.28 182.352L291.528 189H289.056Z" fill="#555555"/>
<g filter="url(#filter8_d)">
<rect x="522" y="157" width="140" height="48" fill="#E8E8E8"/>
</g>
<path d="M556.024 173.712C555.608 173.712 555.256 173.568 554.968 173.28C554.696 172.992 554.56 172.64 554.56 172.224C554.56 171.808 554.696 171.456 554.968 171.168C555.256 170.88 555.608 170.736 556.024 170.736C556.44 170.736 556.784 170.88 557.056 171.168C557.344 171.456 557.488 171.808 557.488 172.224C557.488 172.64 557.344 172.992 557.056 173.28C556.784 173.568 556.44 173.712 556.024 173.712ZM557.104 191.856C557.104 193.024 556.808 193.88 556.216 194.424C555.624 194.968 554.76 195.24 553.624 195.24H552.352V193.392H553.264C553.872 193.392 554.296 193.272 554.536 193.032C554.792 192.792 554.92 192.384 554.92 191.808V175.848H557.104V191.856ZM574.217 192.168L570.881 188.832C570.065 189.056 569.233 189.168 568.385 189.168C566.833 189.168 565.417 188.808 564.137 188.088C562.857 187.352 561.841 186.336 561.089 185.04C560.353 183.728 559.985 182.256 559.985 180.624C559.985 178.992 560.353 177.528 561.089 176.232C561.841 174.92 562.857 173.904 564.137 173.184C565.417 172.448 566.833 172.08 568.385 172.08C569.953 172.08 571.377 172.448 572.657 173.184C573.937 173.904 574.945 174.912 575.681 176.208C576.417 177.504 576.785 178.976 576.785 180.624C576.785 182.224 576.433 183.664 575.729 184.944C575.025 186.224 574.057 187.232 572.825 187.968L577.049 192.168H574.217ZM562.217 180.624C562.217 181.952 562.481 183.12 563.009 184.128C563.553 185.136 564.289 185.912 565.217 186.456C566.161 187 567.217 187.272 568.385 187.272C569.553 187.272 570.601 187 571.529 186.456C572.473 185.912 573.209 185.136 573.737 184.128C574.281 183.12 574.553 181.952 574.553 180.624C574.553 179.28 574.281 178.112 573.737 177.12C573.209 176.112 572.481 175.336 571.553 174.792C570.625 174.248 569.569 173.976 568.385 173.976C567.201 173.976 566.145 174.248 565.217 174.792C564.289 175.336 563.553 176.112 563.009 177.12C562.481 178.112 562.217 179.28 562.217 180.624ZM591.379 175.848V189H589.195V187.056C588.779 187.728 588.195 188.256 587.443 188.64C586.707 189.008 585.891 189.192 584.995 189.192C583.971 189.192 583.051 188.984 582.235 188.568C581.419 188.136 580.771 187.496 580.291 186.648C579.827 185.8 579.595 184.768 579.595 183.552V175.848H581.755V183.264C581.755 184.56 582.083 185.56 582.739 186.264C583.395 186.952 584.291 187.296 585.427 187.296C586.595 187.296 587.515 186.936 588.187 186.216C588.859 185.496 589.195 184.448 589.195 183.072V175.848H591.379ZM607.067 181.92C607.067 182.336 607.043 182.776 606.995 183.24H596.483C596.563 184.536 597.003 185.552 597.803 186.288C598.619 187.008 599.603 187.368 600.755 187.368C601.699 187.368 602.483 187.152 603.107 186.72C603.747 186.272 604.195 185.68 604.451 184.944H606.803C606.451 186.208 605.747 187.24 604.691 188.04C603.635 188.824 602.323 189.216 600.755 189.216C599.507 189.216 598.387 188.936 597.395 188.376C596.419 187.816 595.651 187.024 595.091 186C594.531 184.96 594.251 183.76 594.251 182.4C594.251 181.04 594.523 179.848 595.067 178.824C595.611 177.8 596.371 177.016 597.347 176.472C598.339 175.912 599.475 175.632 600.755 175.632C602.003 175.632 603.107 175.904 604.067 176.448C605.027 176.992 605.763 177.744 606.275 178.704C606.803 179.648 607.067 180.72 607.067 181.92ZM604.811 181.464C604.811 180.632 604.627 179.92 604.259 179.328C603.891 178.72 603.387 178.264 602.747 177.96C602.123 177.64 601.427 177.48 600.659 177.48C599.555 177.48 598.611 177.832 597.827 178.536C597.059 179.24 596.619 180.216 596.507 181.464H604.811ZM612.134 177.984C612.518 177.232 613.062 176.648 613.766 176.232C614.486 175.816 615.358 175.608 616.382 175.608V177.864H615.806C613.358 177.864 612.134 179.192 612.134 181.848V189H609.95V175.848H612.134V177.984ZM630.231 175.848L622.311 195.192H620.055L622.647 188.856L617.343 175.848H619.767L623.895 186.504L627.975 175.848H630.231Z" fill="#555555"/>
<g filter="url(#filter9_d)">
<rect x="684" y="157" width="140" height="48" fill="#E8E8E8"/>
</g>
<path d="M733.152 189.168C732.048 189.168 731.056 188.976 730.176 188.592C729.312 188.192 728.632 187.648 728.136 186.96C727.64 186.256 727.384 185.448 727.368 184.536H729.696C729.776 185.32 730.096 185.984 730.656 186.528C731.232 187.056 732.064 187.32 733.152 187.32C734.192 187.32 735.008 187.064 735.6 186.552C736.208 186.024 736.512 185.352 736.512 184.536C736.512 183.896 736.336 183.376 735.984 182.976C735.632 182.576 735.192 182.272 734.664 182.064C734.136 181.856 733.424 181.632 732.528 181.392C731.424 181.104 730.536 180.816 729.864 180.528C729.208 180.24 728.64 179.792 728.16 179.184C727.696 178.56 727.464 177.728 727.464 176.688C727.464 175.776 727.696 174.968 728.16 174.264C728.624 173.56 729.272 173.016 730.104 172.632C730.952 172.248 731.92 172.056 733.008 172.056C734.576 172.056 735.856 172.448 736.848 173.232C737.856 174.016 738.424 175.056 738.552 176.352H736.152C736.072 175.712 735.736 175.152 735.144 174.672C734.552 174.176 733.768 173.928 732.792 173.928C731.88 173.928 731.136 174.168 730.56 174.648C729.984 175.112 729.696 175.768 729.696 176.616C729.696 177.224 729.864 177.72 730.2 178.104C730.552 178.488 730.976 178.784 731.472 178.992C731.984 179.184 732.696 179.408 733.608 179.664C734.712 179.968 735.6 180.272 736.272 180.576C736.944 180.864 737.52 181.32 738 181.944C738.48 182.552 738.72 183.384 738.72 184.44C738.72 185.256 738.504 186.024 738.072 186.744C737.64 187.464 737 188.048 736.152 188.496C735.304 188.944 734.304 189.168 733.152 189.168ZM741.118 182.376C741.118 181.032 741.39 179.856 741.934 178.848C742.478 177.824 743.222 177.032 744.166 176.472C745.126 175.912 746.19 175.632 747.358 175.632C748.51 175.632 749.51 175.88 750.358 176.376C751.206 176.872 751.838 177.496 752.254 178.248V175.848H754.462V189H752.254V186.552C751.822 187.32 751.174 187.96 750.31 188.472C749.462 188.968 748.47 189.216 747.334 189.216C746.166 189.216 745.11 188.928 744.166 188.352C743.222 187.776 742.478 186.968 741.934 185.928C741.39 184.888 741.118 183.704 741.118 182.376ZM752.254 182.4C752.254 181.408 752.054 180.544 751.654 179.808C751.254 179.072 750.71 178.512 750.022 178.128C749.35 177.728 748.606 177.528 747.79 177.528C746.974 177.528 746.23 177.72 745.558 178.104C744.886 178.488 744.35 179.048 743.95 179.784C743.55 180.52 743.35 181.384 743.35 182.376C743.35 183.384 743.55 184.264 743.95 185.016C744.35 185.752 744.886 186.32 745.558 186.72C746.23 187.104 746.974 187.296 747.79 187.296C748.606 187.296 749.35 187.104 750.022 186.72C750.71 186.32 751.254 185.752 751.654 185.016C752.054 184.264 752.254 183.392 752.254 182.4ZM762.809 189.216C761.801 189.216 760.897 189.048 760.097 188.712C759.297 188.36 758.665 187.88 758.201 187.272C757.737 186.648 757.481 185.936 757.433 185.136H759.689C759.753 185.792 760.057 186.328 760.601 186.744C761.161 187.16 761.889 187.368 762.785 187.368C763.617 187.368 764.273 187.184 764.753 186.816C765.233 186.448 765.473 185.984 765.473 185.424C765.473 184.848 765.217 184.424 764.705 184.152C764.193 183.864 763.401 183.584 762.329 183.312C761.353 183.056 760.553 182.8 759.929 182.544C759.321 182.272 758.793 181.88 758.345 181.368C757.913 180.84 757.697 180.152 757.697 179.304C757.697 178.632 757.897 178.016 758.297 177.456C758.697 176.896 759.265 176.456 760.001 176.136C760.737 175.8 761.577 175.632 762.521 175.632C763.977 175.632 765.153 176 766.049 176.736C766.945 177.472 767.425 178.48 767.489 179.76H765.305C765.257 179.072 764.977 178.52 764.465 178.104C763.969 177.688 763.297 177.48 762.449 177.48C761.665 177.48 761.041 177.648 760.577 177.984C760.113 178.32 759.881 178.76 759.881 179.304C759.881 179.736 760.017 180.096 760.289 180.384C760.577 180.656 760.929 180.88 761.345 181.056C761.777 181.216 762.369 181.4 763.121 181.608C764.065 181.864 764.833 182.12 765.425 182.376C766.017 182.616 766.521 182.984 766.937 183.48C767.369 183.976 767.593 184.624 767.609 185.424C767.609 186.144 767.409 186.792 767.009 187.368C766.609 187.944 766.041 188.4 765.305 188.736C764.585 189.056 763.753 189.216 762.809 189.216ZM775.348 189.216C774.34 189.216 773.436 189.048 772.636 188.712C771.836 188.36 771.204 187.88 770.74 187.272C770.276 186.648 770.02 185.936 769.972 185.136H772.228C772.292 185.792 772.596 186.328 773.14 186.744C773.7 187.16 774.428 187.368 775.324 187.368C776.156 187.368 776.812 187.184 777.292 186.816C777.772 186.448 778.012 185.984 778.012 185.424C778.012 184.848 777.756 184.424 777.244 184.152C776.732 183.864 775.94 183.584 774.868 183.312C773.892 183.056 773.092 182.8 772.468 182.544C771.86 182.272 771.332 181.88 770.884 181.368C770.452 180.84 770.236 180.152 770.236 179.304C770.236 178.632 770.436 178.016 770.836 177.456C771.236 176.896 771.804 176.456 772.54 176.136C773.276 175.8 774.116 175.632 775.06 175.632C776.516 175.632 777.692 176 778.588 176.736C779.484 177.472 779.964 178.48 780.028 179.76H777.844C777.796 179.072 777.516 178.52 777.004 178.104C776.508 177.688 775.836 177.48 774.988 177.48C774.204 177.48 773.58 177.648 773.116 177.984C772.652 178.32 772.42 178.76 772.42 179.304C772.42 179.736 772.556 180.096 772.828 180.384C773.116 180.656 773.468 180.88 773.884 181.056C774.316 181.216 774.908 181.4 775.66 181.608C776.604 181.864 777.372 182.12 777.964 182.376C778.556 182.616 779.06 182.984 779.476 183.48C779.908 183.976 780.132 184.624 780.148 185.424C780.148 186.144 779.948 186.792 779.548 187.368C779.148 187.944 778.58 188.4 777.844 188.736C777.124 189.056 776.292 189.216 775.348 189.216Z" fill="#555555"/>
<g filter="url(#filter10_d)">
<rect x="2" y="84" width="140" height="48" fill="#E8E8E8"/>
</g>
<path d="M45.304 99.272V101.048H38.032V106.688H43.936V108.464H38.032V116H35.848V99.272H45.304ZM49.0698 100.712C48.6538 100.712 48.3018 100.568 48.0138 100.28C47.7258 99.992 47.5818 99.64 47.5818 99.224C47.5818 98.808 47.7258 98.456 48.0138 98.168C48.3018 97.88 48.6538 97.736 49.0698 97.736C49.4698 97.736 49.8058 97.88 50.0778 98.168C50.3658 98.456 50.5098 98.808 50.5098 99.224C50.5098 99.64 50.3658 99.992 50.0778 100.28C49.8058 100.568 49.4698 100.712 49.0698 100.712ZM50.1258 102.848V116H47.9418V102.848H50.1258ZM59.272 102.632C60.408 102.632 61.4 102.88 62.248 103.376C63.112 103.872 63.752 104.496 64.168 105.248V102.848H66.376V116.288C66.376 117.488 66.12 118.552 65.608 119.48C65.096 120.424 64.36 121.16 63.4 121.688C62.456 122.216 61.352 122.48 60.088 122.48C58.36 122.48 56.92 122.072 55.768 121.256C54.616 120.44 53.936 119.328 53.728 117.92H55.888C56.128 118.72 56.624 119.36 57.376 119.84C58.128 120.336 59.032 120.584 60.088 120.584C61.288 120.584 62.264 120.208 63.016 119.456C63.784 118.704 64.168 117.648 64.168 116.288V113.528C63.736 114.296 63.096 114.936 62.248 115.448C61.4 115.96 60.408 116.216 59.272 116.216C58.104 116.216 57.04 115.928 56.08 115.352C55.136 114.776 54.392 113.968 53.848 112.928C53.304 111.888 53.032 110.704 53.032 109.376C53.032 108.032 53.304 106.856 53.848 105.848C54.392 104.824 55.136 104.032 56.08 103.472C57.04 102.912 58.104 102.632 59.272 102.632ZM64.168 109.4C64.168 108.408 63.968 107.544 63.568 106.808C63.168 106.072 62.624 105.512 61.936 105.128C61.264 104.728 60.52 104.528 59.704 104.528C58.888 104.528 58.144 104.72 57.472 105.104C56.8 105.488 56.264 106.048 55.864 106.784C55.464 107.52 55.264 108.384 55.264 109.376C55.264 110.384 55.464 111.264 55.864 112.016C56.264 112.752 56.8 113.32 57.472 113.72C58.144 114.104 58.888 114.296 59.704 114.296C60.52 114.296 61.264 114.104 61.936 113.72C62.624 113.32 63.168 112.752 63.568 112.016C63.968 111.264 64.168 110.392 64.168 109.4ZM85.8828 102.608C86.9068 102.608 87.8188 102.824 88.6188 103.256C89.4188 103.672 90.0508 104.304 90.5148 105.152C90.9788 106 91.2108 107.032 91.2108 108.248V116H89.0508V108.56C89.0508 107.248 88.7228 106.248 88.0668 105.56C87.4268 104.856 86.5548 104.504 85.4508 104.504C84.3148 104.504 83.4108 104.872 82.7388 105.608C82.0668 106.328 81.7308 107.376 81.7308 108.752V116H79.5708V108.56C79.5708 107.248 79.2428 106.248 78.5868 105.56C77.9468 104.856 77.0748 104.504 75.9708 104.504C74.8348 104.504 73.9308 104.872 73.2588 105.608C72.5868 106.328 72.2508 107.376 72.2508 108.752V116H70.0668V102.848H72.2508V104.744C72.6828 104.056 73.2588 103.528 73.9788 103.16C74.7148 102.792 75.5228 102.608 76.4028 102.608C77.5068 102.608 78.4828 102.856 79.3308 103.352C80.1788 103.848 80.8108 104.576 81.2268 105.536C81.5948 104.608 82.2028 103.888 83.0508 103.376C83.8988 102.864 84.8428 102.608 85.8828 102.608ZM93.9773 109.376C93.9773 108.032 94.2493 106.856 94.7933 105.848C95.3373 104.824 96.0813 104.032 97.0253 103.472C97.9853 102.912 99.0493 102.632 100.217 102.632C101.369 102.632 102.369 102.88 103.217 103.376C104.065 103.872 104.697 104.496 105.113 105.248V102.848H107.321V116H105.113V113.552C104.681 114.32 104.033 114.96 103.169 115.472C102.321 115.968 101.329 116.216 100.193 116.216C99.0253 116.216 97.9693 115.928 97.0253 115.352C96.0813 114.776 95.3373 113.968 94.7933 112.928C94.2493 111.888 93.9773 110.704 93.9773 109.376ZM105.113 109.4C105.113 108.408 104.913 107.544 104.513 106.808C104.113 106.072 103.569 105.512 102.881 105.128C102.209 104.728 101.465 104.528 100.649 104.528C99.8333 104.528 99.0893 104.72 98.4173 105.104C97.7453 105.488 97.2093 106.048 96.8093 106.784C96.4093 107.52 96.2093 108.384 96.2093 109.376C96.2093 110.384 96.4093 111.264 96.8093 112.016C97.2093 112.752 97.7453 113.32 98.4173 113.72C99.0893 114.104 99.8333 114.296 100.649 114.296C101.465 114.296 102.209 114.104 102.881 113.72C103.569 113.32 104.113 112.752 104.513 112.016C104.913 111.264 105.113 110.392 105.113 109.4Z" fill="#555555"/>
<g filter="url(#filter11_d)">
<rect x="168" y="84" width="140" height="48" fill="#E8E8E8"/>
</g>
<path d="M189.032 104.168C189.032 105.56 188.552 106.72 187.592 107.648C186.648 108.56 185.2 109.016 183.248 109.016H180.032V116H177.848V99.272H183.248C185.136 99.272 186.568 99.728 187.544 100.64C188.536 101.552 189.032 102.728 189.032 104.168ZM183.248 107.216C184.464 107.216 185.36 106.952 185.936 106.424C186.512 105.896 186.8 105.144 186.8 104.168C186.8 102.104 185.616 101.072 183.248 101.072H180.032V107.216H183.248ZM198.274 102.608C199.266 102.608 200.162 102.824 200.962 103.256C201.762 103.672 202.386 104.304 202.834 105.152C203.298 106 203.53 107.032 203.53 108.248V116H201.37V108.56C201.37 107.248 201.042 106.248 200.386 105.56C199.73 104.856 198.834 104.504 197.698 104.504C196.546 104.504 195.626 104.864 194.938 105.584C194.266 106.304 193.93 107.352 193.93 108.728V116H191.746V98.24H193.93V104.72C194.362 104.048 194.954 103.528 195.706 103.16C196.474 102.792 197.33 102.608 198.274 102.608ZM212.834 116.216C211.602 116.216 210.482 115.936 209.474 115.376C208.482 114.816 207.698 114.024 207.122 113C206.562 111.96 206.282 110.76 206.282 109.4C206.282 108.056 206.57 106.872 207.146 105.848C207.738 104.808 208.538 104.016 209.546 103.472C210.554 102.912 211.682 102.632 212.93 102.632C214.178 102.632 215.306 102.912 216.314 103.472C217.322 104.016 218.114 104.8 218.69 105.824C219.282 106.848 219.578 108.04 219.578 109.4C219.578 110.76 219.274 111.96 218.666 113C218.074 114.024 217.266 114.816 216.242 115.376C215.218 115.936 214.082 116.216 212.834 116.216ZM212.834 114.296C213.618 114.296 214.354 114.112 215.042 113.744C215.73 113.376 216.282 112.824 216.698 112.088C217.13 111.352 217.346 110.456 217.346 109.4C217.346 108.344 217.138 107.448 216.722 106.712C216.306 105.976 215.762 105.432 215.09 105.08C214.418 104.712 213.69 104.528 212.906 104.528C212.106 104.528 211.37 104.712 210.698 105.08C210.042 105.432 209.514 105.976 209.114 106.712C208.714 107.448 208.514 108.344 208.514 109.4C208.514 110.472 208.706 111.376 209.09 112.112C209.49 112.848 210.018 113.4 210.674 113.768C211.33 114.12 212.05 114.296 212.834 114.296ZM225.114 104.648V112.4C225.114 113.04 225.25 113.496 225.522 113.768C225.794 114.024 226.266 114.152 226.938 114.152H228.546V116H226.578C225.362 116 224.45 115.72 223.842 115.16C223.234 114.6 222.93 113.68 222.93 112.4V104.648H221.226V102.848H222.93V99.536H225.114V102.848H228.546V104.648H225.114ZM236.928 116.216C235.696 116.216 234.576 115.936 233.568 115.376C232.576 114.816 231.792 114.024 231.216 113C230.656 111.96 230.376 110.76 230.376 109.4C230.376 108.056 230.664 106.872 231.24 105.848C231.832 104.808 232.632 104.016 233.64 103.472C234.648 102.912 235.776 102.632 237.024 102.632C238.272 102.632 239.4 102.912 240.408 103.472C241.416 104.016 242.208 104.8 242.784 105.824C243.376 106.848 243.672 108.04 243.672 109.4C243.672 110.76 243.368 111.96 242.76 113C242.168 114.024 241.36 114.816 240.336 115.376C239.312 115.936 238.176 116.216 236.928 116.216ZM236.928 114.296C237.712 114.296 238.448 114.112 239.136 113.744C239.824 113.376 240.376 112.824 240.792 112.088C241.224 111.352 241.44 110.456 241.44 109.4C241.44 108.344 241.232 107.448 240.816 106.712C240.4 105.976 239.856 105.432 239.184 105.08C238.512 104.712 237.784 104.528 237 104.528C236.2 104.528 235.464 104.712 234.792 105.08C234.136 105.432 233.608 105.976 233.208 106.712C232.808 107.448 232.608 108.344 232.608 109.4C232.608 110.472 232.8 111.376 233.184 112.112C233.584 112.848 234.112 113.4 234.768 113.768C235.424 114.12 236.144 114.296 236.928 114.296ZM251.199 116.216C250.191 116.216 249.287 116.048 248.487 115.712C247.687 115.36 247.055 114.88 246.591 114.272C246.127 113.648 245.871 112.936 245.823 112.136H248.079C248.143 112.792 248.447 113.328 248.991 113.744C249.551 114.16 250.279 114.368 251.175 114.368C252.007 114.368 252.663 114.184 253.143 113.816C253.623 113.448 253.863 112.984 253.863 112.424C253.863 111.848 253.607 111.424 253.095 111.152C252.583 110.864 251.791 110.584 250.719 110.312C249.743 110.056 248.943 109.8 248.319 109.544C247.711 109.272 247.183 108.88 246.735 108.368C246.303 107.84 246.087 107.152 246.087 106.304C246.087 105.632 246.287 105.016 246.687 104.456C247.087 103.896 247.655 103.456 248.391 103.136C249.127 102.8 249.967 102.632 250.911 102.632C252.367 102.632 253.543 103 254.439 103.736C255.335 104.472 255.815 105.48 255.879 106.76H253.695C253.647 106.072 253.367 105.52 252.855 105.104C252.359 104.688 251.687 104.48 250.839 104.48C250.055 104.48 249.431 104.648 248.967 104.984C248.503 105.32 248.271 105.76 248.271 106.304C248.271 106.736 248.407 107.096 248.679 107.384C248.967 107.656 249.319 107.88 249.735 108.056C250.167 108.216 250.759 108.4 251.511 108.608C252.455 108.864 253.223 109.12 253.815 109.376C254.407 109.616 254.911 109.984 255.327 110.48C255.759 110.976 255.983 111.624 255.999 112.424C255.999 113.144 255.799 113.792 255.399 114.368C254.999 114.944 254.431 115.4 253.695 115.736C252.975 116.056 252.143 116.216 251.199 116.216ZM265.61 102.608C266.602 102.608 267.498 102.824 268.298 103.256C269.098 103.672 269.722 104.304 270.17 105.152C270.634 106 270.866 107.032 270.866 108.248V116H268.706V108.56C268.706 107.248 268.378 106.248 267.722 105.56C267.066 104.856 266.17 104.504 265.034 104.504C263.882 104.504 262.962 104.864 262.274 105.584C261.602 106.304 261.266 107.352 261.266 108.728V116H259.082V98.24H261.266V104.72C261.698 104.048 262.29 103.528 263.042 103.16C263.81 102.792 264.666 102.608 265.61 102.608ZM280.17 116.216C278.938 116.216 277.818 115.936 276.81 115.376C275.818 114.816 275.034 114.024 274.458 113C273.898 111.96 273.618 110.76 273.618 109.4C273.618 108.056 273.906 106.872 274.482 105.848C275.074 104.808 275.874 104.016 276.882 103.472C277.89 102.912 279.018 102.632 280.266 102.632C281.514 102.632 282.642 102.912 283.65 103.472C284.658 104.016 285.45 104.8 286.026 105.824C286.618 106.848 286.914 108.04 286.914 109.4C286.914 110.76 286.61 111.96 286.002 113C285.41 114.024 284.602 114.816 283.578 115.376C282.554 115.936 281.418 116.216 280.17 116.216ZM280.17 114.296C280.954 114.296 281.69 114.112 282.378 113.744C283.066 113.376 283.618 112.824 284.034 112.088C284.466 111.352 284.682 110.456 284.682 109.4C284.682 108.344 284.474 107.448 284.058 106.712C283.642 105.976 283.098 105.432 282.426 105.08C281.754 104.712 281.026 104.528 280.242 104.528C279.442 104.528 278.706 104.712 278.034 105.08C277.378 105.432 276.85 105.976 276.45 106.712C276.05 107.448 275.85 108.344 275.85 109.4C275.85 110.472 276.042 111.376 276.426 112.112C276.826 112.848 277.354 113.4 278.01 113.768C278.666 114.12 279.386 114.296 280.17 114.296ZM291.97 105.272C292.402 104.52 293.042 103.896 293.89 103.4C294.754 102.888 295.754 102.632 296.89 102.632C298.058 102.632 299.114 102.912 300.057 103.472C301.017 104.032 301.77 104.824 302.314 105.848C302.858 106.856 303.13 108.032 303.13 109.376C303.13 110.704 302.858 111.888 302.314 112.928C301.77 113.968 301.017 114.776 300.057 115.352C299.114 115.928 298.058 116.216 296.89 116.216C295.77 116.216 294.778 115.968 293.914 115.472C293.066 114.96 292.418 114.328 291.97 113.576V122.24H289.786V102.848H291.97V105.272ZM300.898 109.376C300.898 108.384 300.698 107.52 300.298 106.784C299.898 106.048 299.354 105.488 298.666 105.104C297.994 104.72 297.25 104.528 296.434 104.528C295.634 104.528 294.89 104.728 294.202 105.128C293.53 105.512 292.986 106.08 292.57 106.832C292.17 107.568 291.97 108.424 291.97 109.4C291.97 110.392 292.17 111.264 292.57 112.016C292.986 112.752 293.53 113.32 294.202 113.72C294.89 114.104 295.634 114.296 296.434 114.296C297.25 114.296 297.994 114.104 298.666 113.72C299.354 113.32 299.898 112.752 300.298 112.016C300.698 111.264 300.898 110.384 300.898 109.376Z" fill="#555555"/>
<g filter="url(#filter12_d)">
<rect x="336" y="84" width="140" height="48" fill="#E8E8E8"/>
</g>
<path d="M353.976 100.712C353.56 100.712 353.208 100.568 352.92 100.28C352.632 99.992 352.488 99.64 352.488 99.224C352.488 98.808 352.632 98.456 352.92 98.168C353.208 97.88 353.56 97.736 353.976 97.736C354.376 97.736 354.712 97.88 354.984 98.168C355.272 98.456 355.416 98.808 355.416 99.224C355.416 99.64 355.272 99.992 354.984 100.28C354.712 100.568 354.376 100.712 353.976 100.712ZM355.032 102.848V116H352.848V102.848H355.032ZM360.938 98.24V116H358.754V98.24H360.938ZM366.845 98.24V116H364.661V98.24H366.845ZM382.231 102.848V116H380.047V114.056C379.631 114.728 379.047 115.256 378.295 115.64C377.559 116.008 376.743 116.192 375.847 116.192C374.823 116.192 373.903 115.984 373.087 115.568C372.271 115.136 371.623 114.496 371.143 113.648C370.679 112.8 370.447 111.768 370.447 110.552V102.848H372.607V110.264C372.607 111.56 372.935 112.56 373.591 113.264C374.247 113.952 375.143 114.296 376.279 114.296C377.447 114.296 378.367 113.936 379.039 113.216C379.711 112.496 380.047 111.448 380.047 110.072V102.848H382.231ZM390.574 116.216C389.566 116.216 388.662 116.048 387.862 115.712C387.062 115.36 386.43 114.88 385.966 114.272C385.502 113.648 385.246 112.936 385.198 112.136H387.454C387.518 112.792 387.822 113.328 388.366 113.744C388.926 114.16 389.654 114.368 390.55 114.368C391.382 114.368 392.038 114.184 392.518 113.816C392.998 113.448 393.238 112.984 393.238 112.424C393.238 111.848 392.982 111.424 392.47 111.152C391.958 110.864 391.166 110.584 390.094 110.312C389.118 110.056 388.318 109.8 387.694 109.544C387.086 109.272 386.558 108.88 386.11 108.368C385.678 107.84 385.462 107.152 385.462 106.304C385.462 105.632 385.662 105.016 386.062 104.456C386.462 103.896 387.03 103.456 387.766 103.136C388.502 102.8 389.342 102.632 390.286 102.632C391.742 102.632 392.918 103 393.814 103.736C394.71 104.472 395.19 105.48 395.254 106.76H393.07C393.022 106.072 392.742 105.52 392.23 105.104C391.734 104.688 391.062 104.48 390.214 104.48C389.43 104.48 388.806 104.648 388.342 104.984C387.878 105.32 387.646 105.76 387.646 106.304C387.646 106.736 387.782 107.096 388.054 107.384C388.342 107.656 388.694 107.88 389.11 108.056C389.542 108.216 390.134 108.4 390.886 108.608C391.83 108.864 392.598 109.12 393.19 109.376C393.782 109.616 394.286 109.984 394.702 110.48C395.134 110.976 395.358 111.624 395.374 112.424C395.374 113.144 395.174 113.792 394.774 114.368C394.374 114.944 393.806 115.4 393.07 115.736C392.35 116.056 391.518 116.216 390.574 116.216ZM401.121 104.648V112.4C401.121 113.04 401.257 113.496 401.529 113.768C401.801 114.024 402.273 114.152 402.945 114.152H404.553V116H402.585C401.369 116 400.457 115.72 399.849 115.16C399.241 114.6 398.937 113.68 398.937 112.4V104.648H397.233V102.848H398.937V99.536H401.121V102.848H404.553V104.648H401.121ZM409.384 104.984C409.768 104.232 410.312 103.648 411.016 103.232C411.736 102.816 412.608 102.608 413.632 102.608V104.864H413.056C410.608 104.864 409.384 106.192 409.384 108.848V116H407.2V102.848H409.384V104.984ZM415.337 109.376C415.337 108.032 415.609 106.856 416.153 105.848C416.697 104.824 417.441 104.032 418.385 103.472C419.345 102.912 420.409 102.632 421.577 102.632C422.729 102.632 423.729 102.88 424.577 103.376C425.425 103.872 426.057 104.496 426.473 105.248V102.848H428.681V116H426.473V113.552C426.041 114.32 425.393 114.96 424.529 115.472C423.681 115.968 422.689 116.216 421.553 116.216C420.385 116.216 419.329 115.928 418.385 115.352C417.441 114.776 416.697 113.968 416.153 112.928C415.609 111.888 415.337 110.704 415.337 109.376ZM426.473 109.4C426.473 108.408 426.273 107.544 425.873 106.808C425.473 106.072 424.929 105.512 424.241 105.128C423.569 104.728 422.825 104.528 422.009 104.528C421.193 104.528 420.449 104.72 419.777 105.104C419.105 105.488 418.569 106.048 418.169 106.784C417.769 107.52 417.569 108.384 417.569 109.376C417.569 110.384 417.769 111.264 418.169 112.016C418.569 112.752 419.105 113.32 419.777 113.72C420.449 114.104 421.193 114.296 422.009 114.296C422.825 114.296 423.569 114.104 424.241 113.72C424.929 113.32 425.473 112.752 425.873 112.016C426.273 111.264 426.473 110.392 426.473 109.4ZM435.035 104.648V112.4C435.035 113.04 435.171 113.496 435.443 113.768C435.715 114.024 436.187 114.152 436.859 114.152H438.467V116H436.499C435.283 116 434.371 115.72 433.763 115.16C433.155 114.6 432.851 113.68 432.851 112.4V104.648H431.147V102.848H432.851V99.536H435.035V102.848H438.467V104.648H435.035ZM446.85 116.216C445.618 116.216 444.498 115.936 443.49 115.376C442.498 114.816 441.714 114.024 441.138 113C440.578 111.96 440.298 110.76 440.298 109.4C440.298 108.056 440.586 106.872 441.162 105.848C441.754 104.808 442.554 104.016 443.562 103.472C444.57 102.912 445.698 102.632 446.946 102.632C448.194 102.632 449.322 102.912 450.33 103.472C451.338 104.016 452.13 104.8 452.706 105.824C453.298 106.848 453.594 108.04 453.594 109.4C453.594 110.76 453.29 111.96 452.682 113C452.09 114.024 451.282 114.816 450.258 115.376C449.234 115.936 448.098 116.216 446.85 116.216ZM446.85 114.296C447.634 114.296 448.37 114.112 449.058 113.744C449.746 113.376 450.298 112.824 450.714 112.088C451.146 111.352 451.362 110.456 451.362 109.4C451.362 108.344 451.154 107.448 450.738 106.712C450.322 105.976 449.778 105.432 449.106 105.08C448.434 104.712 447.706 104.528 446.922 104.528C446.122 104.528 445.386 104.712 444.714 105.08C444.058 105.432 443.53 105.976 443.13 106.712C442.73 107.448 442.53 108.344 442.53 109.4C442.53 110.472 442.722 111.376 443.106 112.112C443.506 112.848 444.034 113.4 444.69 113.768C445.346 114.12 446.066 114.296 446.85 114.296ZM458.649 104.984C459.033 104.232 459.577 103.648 460.281 103.232C461.001 102.816 461.873 102.608 462.897 102.608V104.864H462.321C459.873 104.864 458.649 106.192 458.649 108.848V116H456.465V102.848H458.649V104.984Z" fill="#555555"/>
<g filter="url(#filter13_d)">
<rect x="497" y="84" width="140" height="48" fill="#E8E8E8"/>
</g>
<path d="M523.032 99.272V116H520.848V99.272H523.032ZM533.162 102.608C534.762 102.608 536.058 103.096 537.05 104.072C538.042 105.032 538.538 106.424 538.538 108.248V116H536.378V108.56C536.378 107.248 536.05 106.248 535.394 105.56C534.738 104.856 533.842 104.504 532.706 104.504C531.554 104.504 530.634 104.864 529.946 105.584C529.274 106.304 528.938 107.352 528.938 108.728V116H526.754V102.848H528.938V104.72C529.37 104.048 529.954 103.528 530.69 103.16C531.442 102.792 532.266 102.608 533.162 102.608ZM541.29 109.376C541.29 108.032 541.562 106.856 542.106 105.848C542.65 104.824 543.394 104.032 544.338 103.472C545.298 102.912 546.37 102.632 547.554 102.632C548.578 102.632 549.53 102.872 550.41 103.352C551.29 103.816 551.962 104.432 552.426 105.2V98.24H554.634V116H552.426V113.528C551.994 114.312 551.354 114.96 550.506 115.472C549.658 115.968 548.666 116.216 547.53 116.216C546.362 116.216 545.298 115.928 544.338 115.352C543.394 114.776 542.65 113.968 542.106 112.928C541.562 111.888 541.29 110.704 541.29 109.376ZM552.426 109.4C552.426 108.408 552.226 107.544 551.826 106.808C551.426 106.072 550.882 105.512 550.194 105.128C549.522 104.728 548.778 104.528 547.962 104.528C547.146 104.528 546.402 104.72 545.73 105.104C545.058 105.488 544.522 106.048 544.122 106.784C543.722 107.52 543.522 108.384 543.522 109.376C543.522 110.384 543.722 111.264 544.122 112.016C544.522 112.752 545.058 113.32 545.73 113.72C546.402 114.104 547.146 114.296 547.962 114.296C548.778 114.296 549.522 114.104 550.194 113.72C550.882 113.32 551.426 112.752 551.826 112.016C552.226 111.264 552.426 110.392 552.426 109.4ZM570.325 108.92C570.325 109.336 570.301 109.776 570.253 110.24H559.741C559.821 111.536 560.261 112.552 561.061 113.288C561.877 114.008 562.861 114.368 564.013 114.368C564.957 114.368 565.741 114.152 566.365 113.72C567.005 113.272 567.453 112.68 567.709 111.944H570.061C569.709 113.208 569.005 114.24 567.949 115.04C566.893 115.824 565.581 116.216 564.013 116.216C562.765 116.216 561.645 115.936 560.653 115.376C559.677 114.816 558.909 114.024 558.349 113C557.789 111.96 557.509 110.76 557.509 109.4C557.509 108.04 557.781 106.848 558.325 105.824C558.869 104.8 559.629 104.016 560.605 103.472C561.597 102.912 562.733 102.632 564.013 102.632C565.261 102.632 566.365 102.904 567.325 103.448C568.285 103.992 569.021 104.744 569.533 105.704C570.061 106.648 570.325 107.72 570.325 108.92ZM568.069 108.464C568.069 107.632 567.885 106.92 567.517 106.328C567.149 105.72 566.645 105.264 566.005 104.96C565.381 104.64 564.685 104.48 563.917 104.48C562.813 104.48 561.869 104.832 561.085 105.536C560.317 106.24 559.877 107.216 559.765 108.464H568.069ZM577.863 116.216C576.855 116.216 575.951 116.048 575.151 115.712C574.351 115.36 573.719 114.88 573.255 114.272C572.791 113.648 572.535 112.936 572.487 112.136H574.743C574.807 112.792 575.111 113.328 575.655 113.744C576.215 114.16 576.943 114.368 577.839 114.368C578.671 114.368 579.327 114.184 579.807 113.816C580.287 113.448 580.527 112.984 580.527 112.424C580.527 111.848 580.271 111.424 579.759 111.152C579.247 110.864 578.455 110.584 577.383 110.312C576.407 110.056 575.607 109.8 574.983 109.544C574.375 109.272 573.847 108.88 573.399 108.368C572.967 107.84 572.751 107.152 572.751 106.304C572.751 105.632 572.951 105.016 573.351 104.456C573.751 103.896 574.319 103.456 575.055 103.136C575.791 102.8 576.631 102.632 577.575 102.632C579.031 102.632 580.207 103 581.103 103.736C581.999 104.472 582.479 105.48 582.543 106.76H580.359C580.311 106.072 580.031 105.52 579.519 105.104C579.023 104.688 578.351 104.48 577.503 104.48C576.719 104.48 576.095 104.648 575.631 104.984C575.167 105.32 574.935 105.76 574.935 106.304C574.935 106.736 575.071 107.096 575.343 107.384C575.631 107.656 575.983 107.88 576.399 108.056C576.831 108.216 577.423 108.4 578.175 108.608C579.119 108.864 579.887 109.12 580.479 109.376C581.071 109.616 581.575 109.984 581.991 110.48C582.423 110.976 582.647 111.624 582.663 112.424C582.663 113.144 582.463 113.792 582.063 114.368C581.663 114.944 581.095 115.4 580.359 115.736C579.639 116.056 578.807 116.216 577.863 116.216ZM586.874 100.712C586.458 100.712 586.106 100.568 585.818 100.28C585.53 99.992 585.386 99.64 585.386 99.224C585.386 98.808 585.53 98.456 585.818 98.168C586.106 97.88 586.458 97.736 586.874 97.736C587.274 97.736 587.61 97.88 587.882 98.168C588.17 98.456 588.314 98.808 588.314 99.224C588.314 99.64 588.17 99.992 587.882 100.28C587.61 100.568 587.274 100.712 586.874 100.712ZM587.93 102.848V116H585.746V102.848H587.93ZM597.077 102.632C598.213 102.632 599.205 102.88 600.053 103.376C600.917 103.872 601.557 104.496 601.973 105.248V102.848H604.181V116.288C604.181 117.488 603.925 118.552 603.413 119.48C602.901 120.424 602.165 121.16 601.205 121.688C600.261 122.216 599.157 122.48 597.893 122.48C596.165 122.48 594.725 122.072 593.573 121.256C592.421 120.44 591.741 119.328 591.533 117.92H593.693C593.933 118.72 594.429 119.36 595.181 119.84C595.933 120.336 596.837 120.584 597.893 120.584C599.093 120.584 600.069 120.208 600.821 119.456C601.589 118.704 601.973 117.648 601.973 116.288V113.528C601.541 114.296 600.901 114.936 600.053 115.448C599.205 115.96 598.213 116.216 597.077 116.216C595.909 116.216 594.845 115.928 593.885 115.352C592.941 114.776 592.197 113.968 591.653 112.928C591.109 111.888 590.837 110.704 590.837 109.376C590.837 108.032 591.109 106.856 591.653 105.848C592.197 104.824 592.941 104.032 593.885 103.472C594.845 102.912 595.909 102.632 597.077 102.632ZM601.973 109.4C601.973 108.408 601.773 107.544 601.373 106.808C600.973 106.072 600.429 105.512 599.741 105.128C599.069 104.728 598.325 104.528 597.509 104.528C596.693 104.528 595.949 104.72 595.277 105.104C594.605 105.488 594.069 106.048 593.669 106.784C593.269 107.52 593.069 108.384 593.069 109.376C593.069 110.384 593.269 111.264 593.669 112.016C594.069 112.752 594.605 113.32 595.277 113.72C595.949 114.104 596.693 114.296 597.509 114.296C598.325 114.296 599.069 114.104 599.741 113.72C600.429 113.32 600.973 112.752 601.373 112.016C601.773 111.264 601.973 110.392 601.973 109.4ZM614.279 102.608C615.879 102.608 617.175 103.096 618.167 104.072C619.159 105.032 619.655 106.424 619.655 108.248V116H617.495V108.56C617.495 107.248 617.167 106.248 616.511 105.56C615.855 104.856 614.959 104.504 613.823 104.504C612.671 104.504 611.751 104.864 611.063 105.584C610.391 106.304 610.055 107.352 610.055 108.728V116H607.871V102.848H610.055V104.72C610.487 104.048 611.071 103.528 611.807 103.16C612.559 102.792 613.383 102.608 614.279 102.608Z" fill="#555555"/>
<g filter="url(#filter14_d)">
<rect x="659" y="84" width="155" height="48" fill="#E8E8E8"/>
</g>
<path d="M682.272 112.28H674.976L673.632 116H671.328L677.376 99.368H679.896L685.92 116H683.616L682.272 112.28ZM681.648 110.504L678.624 102.056L675.6 110.504H681.648ZM693.908 104.648H691.148V116H688.964V104.648H687.26V102.848H688.964V101.912C688.964 100.44 689.34 99.368 690.092 98.696C690.86 98.008 692.084 97.664 693.764 97.664V99.488C692.804 99.488 692.124 99.68 691.724 100.064C691.34 100.432 691.148 101.048 691.148 101.912V102.848H693.908V104.648ZM699.118 104.648V112.4C699.118 113.04 699.254 113.496 699.526 113.768C699.798 114.024 700.27 114.152 700.942 114.152H702.55V116H700.582C699.366 116 698.454 115.72 697.846 115.16C697.238 114.6 696.934 113.68 696.934 112.4V104.648H695.23V102.848H696.934V99.536H699.118V102.848H702.55V104.648H699.118ZM717.196 108.92C717.196 109.336 717.172 109.776 717.124 110.24H706.612C706.692 111.536 707.132 112.552 707.932 113.288C708.748 114.008 709.732 114.368 710.884 114.368C711.828 114.368 712.612 114.152 713.236 113.72C713.876 113.272 714.324 112.68 714.58 111.944H716.932C716.58 113.208 715.876 114.24 714.82 115.04C713.764 115.824 712.452 116.216 710.884 116.216C709.636 116.216 708.516 115.936 707.524 115.376C706.548 114.816 705.78 114.024 705.22 113C704.66 111.96 704.38 110.76 704.38 109.4C704.38 108.04 704.652 106.848 705.196 105.824C705.74 104.8 706.5 104.016 707.476 103.472C708.468 102.912 709.604 102.632 710.884 102.632C712.132 102.632 713.236 102.904 714.196 103.448C715.156 103.992 715.892 104.744 716.404 105.704C716.932 106.648 717.196 107.72 717.196 108.92ZM714.94 108.464C714.94 107.632 714.756 106.92 714.388 106.328C714.02 105.72 713.516 105.264 712.876 104.96C712.252 104.64 711.556 104.48 710.788 104.48C709.684 104.48 708.74 104.832 707.956 105.536C707.188 106.24 706.748 107.216 706.636 108.464H714.94ZM722.263 104.984C722.647 104.232 723.191 103.648 723.895 103.232C724.615 102.816 725.487 102.608 726.511 102.608V104.864H725.935C723.487 104.864 722.263 106.192 722.263 108.848V116H720.079V102.848H722.263V104.984ZM737.615 101.048V106.64H743.711V108.44H737.615V114.2H744.431V116H735.431V99.248H744.431V101.048H737.615ZM753.087 104.648H750.327V116H748.143V104.648H746.439V102.848H748.143V101.912C748.143 100.44 748.519 99.368 749.271 98.696C750.039 98.008 751.263 97.664 752.943 97.664V99.488C751.983 99.488 751.303 99.68 750.903 100.064C750.519 100.432 750.327 101.048 750.327 101.912V102.848H753.087V104.648ZM760.986 104.648H758.226V116H756.042V104.648H754.338V102.848H756.042V101.912C756.042 100.44 756.418 99.368 757.17 98.696C757.938 98.008 759.162 97.664 760.842 97.664V99.488C759.882 99.488 759.202 99.68 758.802 100.064C758.418 100.432 758.226 101.048 758.226 101.912V102.848H760.986V104.648ZM775.532 108.92C775.532 109.336 775.508 109.776 775.46 110.24H764.948C765.028 111.536 765.468 112.552 766.268 113.288C767.084 114.008 768.068 114.368 769.22 114.368C770.164 114.368 770.948 114.152 771.572 113.72C772.212 113.272 772.66 112.68 772.916 111.944H775.268C774.916 113.208 774.212 114.24 773.156 115.04C772.1 115.824 770.788 116.216 769.22 116.216C767.972 116.216 766.852 115.936 765.86 115.376C764.884 114.816 764.116 114.024 763.556 113C762.996 111.96 762.716 110.76 762.716 109.4C762.716 108.04 762.988 106.848 763.532 105.824C764.076 104.8 764.836 104.016 765.812 103.472C766.804 102.912 767.94 102.632 769.22 102.632C770.468 102.632 771.572 102.904 772.532 103.448C773.492 103.992 774.228 104.744 774.74 105.704C775.268 106.648 775.532 107.72 775.532 108.92ZM773.276 108.464C773.276 107.632 773.092 106.92 772.724 106.328C772.356 105.72 771.852 105.264 771.212 104.96C770.588 104.64 769.892 104.48 769.124 104.48C768.02 104.48 767.076 104.832 766.292 105.536C765.524 106.24 765.084 107.216 764.972 108.464H773.276ZM777.599 109.4C777.599 108.04 777.871 106.856 778.415 105.848C778.959 104.824 779.711 104.032 780.671 103.472C781.647 102.912 782.759 102.632 784.007 102.632C785.623 102.632 786.951 103.024 787.991 103.808C789.047 104.592 789.743 105.68 790.079 107.072H787.727C787.503 106.272 787.063 105.64 786.407 105.176C785.767 104.712 784.967 104.48 784.007 104.48C782.759 104.48 781.751 104.912 780.983 105.776C780.215 106.624 779.831 107.832 779.831 109.4C779.831 110.984 780.215 112.208 780.983 113.072C781.751 113.936 782.759 114.368 784.007 114.368C784.967 114.368 785.767 114.144 786.407 113.696C787.047 113.248 787.487 112.608 787.727 111.776H790.079C789.727 113.12 789.023 114.2 787.967 115.016C786.911 115.816 785.591 116.216 784.007 116.216C782.759 116.216 781.647 115.936 780.671 115.376C779.711 114.816 778.959 114.024 778.415 113C777.871 111.976 777.599 110.776 777.599 109.4ZM795.657 104.648V112.4C795.657 113.04 795.793 113.496 796.065 113.768C796.337 114.024 796.809 114.152 797.481 114.152H799.089V116H797.121C795.905 116 794.993 115.72 794.385 115.16C793.777 114.6 793.473 113.68 793.473 112.4V104.648H791.769V102.848H793.473V99.536H795.657V102.848H799.089V104.648H795.657Z" fill="#555555"/>
<g filter="url(#filter15_d)">
<rect x="829" y="84" width="181" height="48" fill="#E8E8E8"/>
</g>
<path d="M861.032 104.168C861.032 105.56 860.552 106.72 859.592 107.648C858.648 108.56 857.2 109.016 855.248 109.016H852.032V116H849.848V99.272H855.248C857.136 99.272 858.568 99.728 859.544 100.64C860.536 101.552 861.032 102.728 861.032 104.168ZM855.248 107.216C856.464 107.216 857.36 106.952 857.936 106.424C858.512 105.896 858.8 105.144 858.8 104.168C858.8 102.104 857.616 101.072 855.248 101.072H852.032V107.216H855.248ZM865.93 104.984C866.314 104.232 866.858 103.648 867.562 103.232C868.282 102.816 869.154 102.608 870.178 102.608V104.864H869.602C867.154 104.864 865.93 106.192 865.93 108.848V116H863.746V102.848H865.93V104.984ZM884.7 108.92C884.7 109.336 884.676 109.776 884.628 110.24H874.116C874.196 111.536 874.636 112.552 875.436 113.288C876.252 114.008 877.236 114.368 878.388 114.368C879.332 114.368 880.116 114.152 880.74 113.72C881.38 113.272 881.828 112.68 882.084 111.944H884.436C884.084 113.208 883.38 114.24 882.324 115.04C881.268 115.824 879.956 116.216 878.388 116.216C877.14 116.216 876.02 115.936 875.028 115.376C874.052 114.816 873.284 114.024 872.724 113C872.164 111.96 871.884 110.76 871.884 109.4C871.884 108.04 872.156 106.848 872.7 105.824C873.244 104.8 874.004 104.016 874.98 103.472C875.972 102.912 877.108 102.632 878.388 102.632C879.636 102.632 880.74 102.904 881.7 103.448C882.66 103.992 883.396 104.744 883.908 105.704C884.436 106.648 884.7 107.72 884.7 108.92ZM882.444 108.464C882.444 107.632 882.26 106.92 881.892 106.328C881.524 105.72 881.02 105.264 880.38 104.96C879.756 104.64 879.06 104.48 878.292 104.48C877.188 104.48 876.244 104.832 875.46 105.536C874.692 106.24 874.252 107.216 874.14 108.464H882.444ZM903.398 102.608C904.422 102.608 905.334 102.824 906.134 103.256C906.934 103.672 907.566 104.304 908.03 105.152C908.494 106 908.726 107.032 908.726 108.248V116H906.566V108.56C906.566 107.248 906.238 106.248 905.582 105.56C904.942 104.856 904.07 104.504 902.966 104.504C901.83 104.504 900.926 104.872 900.254 105.608C899.582 106.328 899.246 107.376 899.246 108.752V116H897.086V108.56C897.086 107.248 896.758 106.248 896.102 105.56C895.462 104.856 894.59 104.504 893.486 104.504C892.35 104.504 891.446 104.872 890.774 105.608C890.102 106.328 889.766 107.376 889.766 108.752V116H887.582V102.848H889.766V104.744C890.198 104.056 890.774 103.528 891.494 103.16C892.23 102.792 893.038 102.608 893.918 102.608C895.022 102.608 895.998 102.856 896.846 103.352C897.694 103.848 898.326 104.576 898.742 105.536C899.11 104.608 899.718 103.888 900.566 103.376C901.414 102.864 902.358 102.608 903.398 102.608ZM913.437 100.712C913.021 100.712 912.669 100.568 912.381 100.28C912.093 99.992 911.949 99.64 911.949 99.224C911.949 98.808 912.093 98.456 912.381 98.168C912.669 97.88 913.021 97.736 913.437 97.736C913.837 97.736 914.173 97.88 914.445 98.168C914.733 98.456 914.877 98.808 914.877 99.224C914.877 99.64 914.733 99.992 914.445 100.28C914.173 100.568 913.837 100.712 913.437 100.712ZM914.493 102.848V116H912.309V102.848H914.493ZM930.215 108.92C930.215 109.336 930.191 109.776 930.143 110.24H919.631C919.711 111.536 920.151 112.552 920.951 113.288C921.767 114.008 922.751 114.368 923.903 114.368C924.847 114.368 925.631 114.152 926.255 113.72C926.895 113.272 927.343 112.68 927.599 111.944H929.951C929.599 113.208 928.895 114.24 927.839 115.04C926.783 115.824 925.471 116.216 923.903 116.216C922.655 116.216 921.535 115.936 920.543 115.376C919.567 114.816 918.799 114.024 918.239 113C917.679 111.96 917.399 110.76 917.399 109.4C917.399 108.04 917.671 106.848 918.215 105.824C918.759 104.8 919.519 104.016 920.495 103.472C921.487 102.912 922.623 102.632 923.903 102.632C925.151 102.632 926.255 102.904 927.215 103.448C928.175 103.992 928.911 104.744 929.423 105.704C929.951 106.648 930.215 107.72 930.215 108.92ZM927.959 108.464C927.959 107.632 927.775 106.92 927.407 106.328C927.039 105.72 926.535 105.264 925.895 104.96C925.271 104.64 924.575 104.48 923.807 104.48C922.703 104.48 921.759 104.832 920.975 105.536C920.207 106.24 919.767 107.216 919.655 108.464H927.959ZM935.282 104.984C935.666 104.232 936.21 103.648 936.914 103.232C937.634 102.816 938.506 102.608 939.53 102.608V104.864H938.954C936.506 104.864 935.282 106.192 935.282 108.848V116H933.098V102.848H935.282V104.984ZM954.051 108.92C954.051 109.336 954.027 109.776 953.979 110.24H943.467C943.547 111.536 943.987 112.552 944.787 113.288C945.603 114.008 946.587 114.368 947.739 114.368C948.683 114.368 949.467 114.152 950.091 113.72C950.731 113.272 951.179 112.68 951.435 111.944H953.787C953.435 113.208 952.731 114.24 951.675 115.04C950.619 115.824 949.307 116.216 947.739 116.216C946.491 116.216 945.371 115.936 944.379 115.376C943.403 114.816 942.635 114.024 942.075 113C941.515 111.96 941.235 110.76 941.235 109.4C941.235 108.04 941.507 106.848 942.051 105.824C942.595 104.8 943.355 104.016 944.331 103.472C945.323 102.912 946.459 102.632 947.739 102.632C948.987 102.632 950.091 102.904 951.051 103.448C952.011 103.992 952.747 104.744 953.259 105.704C953.787 106.648 954.051 107.72 954.051 108.92ZM951.795 108.464C951.795 107.632 951.611 106.92 951.243 106.328C950.875 105.72 950.371 105.264 949.731 104.96C949.107 104.64 948.411 104.48 947.643 104.48C946.539 104.48 945.595 104.832 944.811 105.536C944.043 106.24 943.603 107.216 943.491 108.464H951.795ZM974.516 104.168C974.516 105.56 974.036 106.72 973.076 107.648C972.132 108.56 970.684 109.016 968.732 109.016H965.516V116H963.332V99.272H968.732C970.62 99.272 972.052 99.728 973.028 100.64C974.02 101.552 974.516 102.728 974.516 104.168ZM968.732 107.216C969.948 107.216 970.844 106.952 971.42 106.424C971.996 105.896 972.284 105.144 972.284 104.168C972.284 102.104 971.1 101.072 968.732 101.072H965.516V107.216H968.732ZM979.415 104.984C979.799 104.232 980.343 103.648 981.047 103.232C981.767 102.816 982.639 102.608 983.663 102.608V104.864H983.087C980.639 104.864 979.415 106.192 979.415 108.848V116H977.231V102.848H979.415V104.984ZM991.92 116.216C990.688 116.216 989.568 115.936 988.56 115.376C987.568 114.816 986.784 114.024 986.208 113C985.648 111.96 985.368 110.76 985.368 109.4C985.368 108.056 985.656 106.872 986.232 105.848C986.824 104.808 987.624 104.016 988.632 103.472C989.64 102.912 990.768 102.632 992.016 102.632C993.264 102.632 994.392 102.912 995.4 103.472C996.408 104.016 997.2 104.8 997.776 105.824C998.368 106.848 998.664 108.04 998.664 109.4C998.664 110.76 998.36 111.96 997.752 113C997.16 114.024 996.352 114.816 995.328 115.376C994.304 115.936 993.168 116.216 991.92 116.216ZM991.92 114.296C992.704 114.296 993.44 114.112 994.128 113.744C994.816 113.376 995.368 112.824 995.784 112.088C996.216 111.352 996.432 110.456 996.432 109.4C996.432 108.344 996.224 107.448 995.808 106.712C995.392 105.976 994.848 105.432 994.176 105.08C993.504 104.712 992.776 104.528 991.992 104.528C991.192 104.528 990.456 104.712 989.784 105.08C989.128 105.432 988.6 105.976 988.2 106.712C987.8 107.448 987.6 108.344 987.6 109.4C987.6 110.472 987.792 111.376 988.176 112.112C988.576 112.848 989.104 113.4 989.76 113.768C990.416 114.12 991.136 114.296 991.92 114.296Z" fill="#555555"/>
<g filter="url(#filter16_d)">
<rect x="440" y="230" width="140" height="48" fill="#E8E8E8"/>
</g>
<path d="M492.272 245.272V257.632C492.272 259.008 491.848 260.112 491 260.944C490.152 261.76 489.032 262.168 487.64 262.168C486.232 262.168 485.104 261.752 484.256 260.92C483.408 260.072 482.984 258.92 482.984 257.464H485.168C485.184 258.28 485.392 258.944 485.792 259.456C486.208 259.968 486.824 260.224 487.64 260.224C488.456 260.224 489.064 259.984 489.464 259.504C489.864 259.008 490.064 258.384 490.064 257.632V245.272H492.272ZM501.879 262.168C500.775 262.168 499.783 261.976 498.903 261.592C498.039 261.192 497.359 260.648 496.863 259.96C496.367 259.256 496.111 258.448 496.095 257.536H498.423C498.503 258.32 498.823 258.984 499.383 259.528C499.959 260.056 500.791 260.32 501.879 260.32C502.919 260.32 503.735 260.064 504.327 259.552C504.935 259.024 505.239 258.352 505.239 257.536C505.239 256.896 505.063 256.376 504.711 255.976C504.359 255.576 503.919 255.272 503.391 255.064C502.863 254.856 502.151 254.632 501.255 254.392C500.151 254.104 499.263 253.816 498.591 253.528C497.935 253.24 497.367 252.792 496.887 252.184C496.423 251.56 496.191 250.728 496.191 249.688C496.191 248.776 496.423 247.968 496.887 247.264C497.351 246.56 497.999 246.016 498.831 245.632C499.679 245.248 500.647 245.056 501.735 245.056C503.303 245.056 504.583 245.448 505.575 246.232C506.583 247.016 507.151 248.056 507.279 249.352H504.879C504.799 248.712 504.463 248.152 503.871 247.672C503.279 247.176 502.495 246.928 501.519 246.928C500.607 246.928 499.863 247.168 499.287 247.648C498.711 248.112 498.423 248.768 498.423 249.616C498.423 250.224 498.591 250.72 498.927 251.104C499.279 251.488 499.703 251.784 500.199 251.992C500.711 252.184 501.423 252.408 502.335 252.664C503.439 252.968 504.327 253.272 504.999 253.576C505.671 253.864 506.247 254.32 506.727 254.944C507.207 255.552 507.447 256.384 507.447 257.44C507.447 258.256 507.231 259.024 506.799 259.744C506.367 260.464 505.727 261.048 504.879 261.496C504.031 261.944 503.031 262.168 501.879 262.168ZM518.245 262.168C516.693 262.168 515.277 261.808 513.997 261.088C512.717 260.352 511.701 259.336 510.949 258.04C510.213 256.728 509.845 255.256 509.845 253.624C509.845 251.992 510.213 250.528 510.949 249.232C511.701 247.92 512.717 246.904 513.997 246.184C515.277 245.448 516.693 245.08 518.245 245.08C519.813 245.08 521.237 245.448 522.517 246.184C523.797 246.904 524.805 247.912 525.541 249.208C526.277 250.504 526.645 251.976 526.645 253.624C526.645 255.272 526.277 256.744 525.541 258.04C524.805 259.336 523.797 260.352 522.517 261.088C521.237 261.808 519.813 262.168 518.245 262.168ZM518.245 260.272C519.413 260.272 520.461 260 521.389 259.456C522.333 258.912 523.069 258.136 523.597 257.128C524.141 256.12 524.413 254.952 524.413 253.624C524.413 252.28 524.141 251.112 523.597 250.12C523.069 249.112 522.341 248.336 521.413 247.792C520.485 247.248 519.429 246.976 518.245 246.976C517.061 246.976 516.005 247.248 515.077 247.792C514.149 248.336 513.413 249.112 512.869 250.12C512.341 251.112 512.077 252.28 512.077 253.624C512.077 254.952 512.341 256.12 512.869 257.128C513.413 258.136 514.149 258.912 515.077 259.456C516.021 260 517.077 260.272 518.245 260.272ZM542.68 262H540.496L531.712 248.68V262H529.528V245.248H531.712L540.496 258.544V245.248H542.68V262Z" fill="#555555"/>
<defs>
<filter id="filter0_d" x="30" y="0" width="152" height="60" filterUnits="userSpaceOnUse" color-interpolation-filters="sRGB">
<feFlood flood-opacity="0" result="BackgroundImageFix"/>
<feColorMatrix in="SourceAlpha" type="matrix" values="0 0 0 0 0 0 0 0 0 0 0 0 0 0 0 0 0 0 127 0"/>
<feOffset dx="4" dy="4"/>
<feGaussianBlur stdDeviation="3"/>
<feColorMatrix type="matrix" values="0 0 0 0 0 0 0 0 0 0 0 0 0 0 0 0 0 0 0.25 0"/>
<feBlend mode="normal" in2="BackgroundImageFix" result="effect1_dropShadow"/>
<feBlend mode="normal" in="SourceGraphic" in2="effect1_dropShadow" result="shape"/>
</filter>
<filter id="filter1_d" x="191" y="0" width="164" height="60" filterUnits="userSpaceOnUse" color-interpolation-filters="sRGB">
<feFlood flood-opacity="0" result="BackgroundImageFix"/>
<feColorMatrix in="SourceAlpha" type="matrix" values="0 0 0 0 0 0 0 0 0 0 0 0 0 0 0 0 0 0 127 0"/>
<feOffset dx="4" dy="4"/>
<feGaussianBlur stdDeviation="3"/>
<feColorMatrix type="matrix" values="0 0 0 0 0 0 0 0 0 0 0 0 0 0 0 0 0 0 0.25 0"/>
<feBlend mode="normal" in2="BackgroundImageFix" result="effect1_dropShadow"/>
<feBlend mode="normal" in="SourceGraphic" in2="effect1_dropShadow" result="shape"/>
</filter>
<filter id="filter2_d" x="363" y="0" width="154" height="60" filterUnits="userSpaceOnUse" color-interpolation-filters="sRGB">
<feFlood flood-opacity="0" result="BackgroundImageFix"/>
<feColorMatrix in="SourceAlpha" type="matrix" values="0 0 0 0 0 0 0 0 0 0 0 0 0 0 0 0 0 0 127 0"/>
<feOffset dx="4" dy="4"/>
<feGaussianBlur stdDeviation="3"/>
<feColorMatrix type="matrix" values="0 0 0 0 0 0 0 0 0 0 0 0 0 0 0 0 0 0 0.25 0"/>
<feBlend mode="normal" in2="BackgroundImageFix" result="effect1_dropShadow"/>
<feBlend mode="normal" in="SourceGraphic" in2="effect1_dropShadow" result="shape"/>
</filter>
<filter id="filter3_d" x="523" y="0" width="154" height="60" filterUnits="userSpaceOnUse" color-interpolation-filters="sRGB">
<feFlood flood-opacity="0" result="BackgroundImageFix"/>
<feColorMatrix in="SourceAlpha" type="matrix" values="0 0 0 0 0 0 0 0 0 0 0 0 0 0 0 0 0 0 127 0"/>
<feOffset dx="4" dy="4"/>
<feGaussianBlur stdDeviation="3"/>
<feColorMatrix type="matrix" values="0 0 0 0 0 0 0 0 0 0 0 0 0 0 0 0 0 0 0.25 0"/>
<feBlend mode="normal" in2="BackgroundImageFix" result="effect1_dropShadow"/>
<feBlend mode="normal" in="SourceGraphic" in2="effect1_dropShadow" result="shape"/>
</filter>
<filter id="filter4_d" x="683" y="0" width="154" height="60" filterUnits="userSpaceOnUse" color-interpolation-filters="sRGB">
<feFlood flood-opacity="0" result="BackgroundImageFix"/>
<feColorMatrix in="SourceAlpha" type="matrix" values="0 0 0 0 0 0 0 0 0 0 0 0 0 0 0 0 0 0 127 0"/>
<feOffset dx="4" dy="4"/>
<feGaussianBlur stdDeviation="3"/>
<feColorMatrix type="matrix" values="0 0 0 0 0 0 0 0 0 0 0 0 0 0 0 0 0 0 0.25 0"/>
<feBlend mode="normal" in2="BackgroundImageFix" result="effect1_dropShadow"/>
<feBlend mode="normal" in="SourceGraphic" in2="effect1_dropShadow" result="shape"/>
</filter>
<filter id="filter5_d" x="843" y="0" width="154" height="60" filterUnits="userSpaceOnUse" color-interpolation-filters="sRGB">
<feFlood flood-opacity="0" result="BackgroundImageFix"/>
<feColorMatrix in="SourceAlpha" type="matrix" values="0 0 0 0 0 0 0 0 0 0 0 0 0 0 0 0 0 0 127 0"/>
<feOffset dx="4" dy="4"/>
<feGaussianBlur stdDeviation="3"/>
<feColorMatrix type="matrix" values="0 0 0 0 0 0 0 0 0 0 0 0 0 0 0 0 0 0 0.25 0"/>
<feBlend mode="normal" in2="BackgroundImageFix" result="effect1_dropShadow"/>
<feBlend mode="normal" in="SourceGraphic" in2="effect1_dropShadow" result="shape"/>
</filter>
<filter id="filter6_d" x="359" y="155" width="152" height="60" filterUnits="userSpaceOnUse" color-interpolation-filters="sRGB">
<feFlood flood-opacity="0" result="BackgroundImageFix"/>
<feColorMatrix in="SourceAlpha" type="matrix" values="0 0 0 0 0 0 0 0 0 0 0 0 0 0 0 0 0 0 127 0"/>
<feOffset dx="4" dy="4"/>
<feGaussianBlur stdDeviation="3"/>
<feColorMatrix type="matrix" values="0 0 0 0 0 0 0 0 0 0 0 0 0 0 0 0 0 0 0.25 0"/>
<feBlend mode="normal" in2="BackgroundImageFix" result="effect1_dropShadow"/>
<feBlend mode="normal" in="SourceGraphic" in2="effect1_dropShadow" result="shape"/>
</filter>
<filter id="filter7_d" x="193" y="155" width="152" height="60" filterUnits="userSpaceOnUse" color-interpolation-filters="sRGB">
<feFlood flood-opacity="0" result="BackgroundImageFix"/>
<feColorMatrix in="SourceAlpha" type="matrix" values="0 0 0 0 0 0 0 0 0 0 0 0 0 0 0 0 0 0 127 0"/>
<feOffset dx="4" dy="4"/>
<feGaussianBlur stdDeviation="3"/>
<feColorMatrix type="matrix" values="0 0 0 0 0 0 0 0 0 0 0 0 0 0 0 0 0 0 0.25 0"/>
<feBlend mode="normal" in2="BackgroundImageFix" result="effect1_dropShadow"/>
<feBlend mode="normal" in="SourceGraphic" in2="effect1_dropShadow" result="shape"/>
</filter>
<filter id="filter8_d" x="520" y="155" width="152" height="60" filterUnits="userSpaceOnUse" color-interpolation-filters="sRGB">
<feFlood flood-opacity="0" result="BackgroundImageFix"/>
<feColorMatrix in="SourceAlpha" type="matrix" values="0 0 0 0 0 0 0 0 0 0 0 0 0 0 0 0 0 0 127 0"/>
<feOffset dx="4" dy="4"/>
<feGaussianBlur stdDeviation="3"/>
<feColorMatrix type="matrix" values="0 0 0 0 0 0 0 0 0 0 0 0 0 0 0 0 0 0 0.25 0"/>
<feBlend mode="normal" in2="BackgroundImageFix" result="effect1_dropShadow"/>
<feBlend mode="normal" in="SourceGraphic" in2="effect1_dropShadow" result="shape"/>
</filter>
<filter id="filter9_d" x="682" y="155" width="152" height="60" filterUnits="userSpaceOnUse" color-interpolation-filters="sRGB">
<feFlood flood-opacity="0" result="BackgroundImageFix"/>
<feColorMatrix in="SourceAlpha" type="matrix" values="0 0 0 0 0 0 0 0 0 0 0 0 0 0 0 0 0 0 127 0"/>
<feOffset dx="4" dy="4"/>
<feGaussianBlur stdDeviation="3"/>
<feColorMatrix type="matrix" values="0 0 0 0 0 0 0 0 0 0 0 0 0 0 0 0 0 0 0.25 0"/>
<feBlend mode="normal" in2="BackgroundImageFix" result="effect1_dropShadow"/>
<feBlend mode="normal" in="SourceGraphic" in2="effect1_dropShadow" result="shape"/>
</filter>
<filter id="filter10_d" x="0" y="82" width="152" height="60" filterUnits="userSpaceOnUse" color-interpolation-filters="sRGB">
<feFlood flood-opacity="0" result="BackgroundImageFix"/>
<feColorMatrix in="SourceAlpha" type="matrix" values="0 0 0 0 0 0 0 0 0 0 0 0 0 0 0 0 0 0 127 0"/>
<feOffset dx="4" dy="4"/>
<feGaussianBlur stdDeviation="3"/>
<feColorMatrix type="matrix" values="0 0 0 0 0 0 0 0 0 0 0 0 0 0 0 0 0 0 0.25 0"/>
<feBlend mode="normal" in2="BackgroundImageFix" result="effect1_dropShadow"/>
<feBlend mode="normal" in="SourceGraphic" in2="effect1_dropShadow" result="shape"/>
</filter>
<filter id="filter11_d" x="166" y="82" width="152" height="60" filterUnits="userSpaceOnUse" color-interpolation-filters="sRGB">
<feFlood flood-opacity="0" result="BackgroundImageFix"/>
<feColorMatrix in="SourceAlpha" type="matrix" values="0 0 0 0 0 0 0 0 0 0 0 0 0 0 0 0 0 0 127 0"/>
<feOffset dx="4" dy="4"/>
<feGaussianBlur stdDeviation="3"/>
<feColorMatrix type="matrix" values="0 0 0 0 0 0 0 0 0 0 0 0 0 0 0 0 0 0 0.25 0"/>
<feBlend mode="normal" in2="BackgroundImageFix" result="effect1_dropShadow"/>
<feBlend mode="normal" in="SourceGraphic" in2="effect1_dropShadow" result="shape"/>
</filter>
<filter id="filter12_d" x="334" y="82" width="152" height="60" filterUnits="userSpaceOnUse" color-interpolation-filters="sRGB">
<feFlood flood-opacity="0" result="BackgroundImageFix"/>
<feColorMatrix in="SourceAlpha" type="matrix" values="0 0 0 0 0 0 0 0 0 0 0 0 0 0 0 0 0 0 127 0"/>
<feOffset dx="4" dy="4"/>
<feGaussianBlur stdDeviation="3"/>
<feColorMatrix type="matrix" values="0 0 0 0 0 0 0 0 0 0 0 0 0 0 0 0 0 0 0.25 0"/>
<feBlend mode="normal" in2="BackgroundImageFix" result="effect1_dropShadow"/>
<feBlend mode="normal" in="SourceGraphic" in2="effect1_dropShadow" result="shape"/>
</filter>
<filter id="filter13_d" x="495" y="82" width="152" height="60" filterUnits="userSpaceOnUse" color-interpolation-filters="sRGB">
<feFlood flood-opacity="0" result="BackgroundImageFix"/>
<feColorMatrix in="SourceAlpha" type="matrix" values="0 0 0 0 0 0 0 0 0 0 0 0 0 0 0 0 0 0 127 0"/>
<feOffset dx="4" dy="4"/>
<feGaussianBlur stdDeviation="3"/>
<feColorMatrix type="matrix" values="0 0 0 0 0 0 0 0 0 0 0 0 0 0 0 0 0 0 0.25 0"/>
<feBlend mode="normal" in2="BackgroundImageFix" result="effect1_dropShadow"/>
<feBlend mode="normal" in="SourceGraphic" in2="effect1_dropShadow" result="shape"/>
</filter>
<filter id="filter14_d" x="657" y="82" width="167" height="60" filterUnits="userSpaceOnUse" color-interpolation-filters="sRGB">
<feFlood flood-opacity="0" result="BackgroundImageFix"/>
<feColorMatrix in="SourceAlpha" type="matrix" values="0 0 0 0 0 0 0 0 0 0 0 0 0 0 0 0 0 0 127 0"/>
<feOffset dx="4" dy="4"/>
<feGaussianBlur stdDeviation="3"/>
<feColorMatrix type="matrix" values="0 0 0 0 0 0 0 0 0 0 0 0 0 0 0 0 0 0 0.25 0"/>
<feBlend mode="normal" in2="BackgroundImageFix" result="effect1_dropShadow"/>
<feBlend mode="normal" in="SourceGraphic" in2="effect1_dropShadow" result="shape"/>
</filter>
<filter id="filter15_d" x="827" y="82" width="193" height="60" filterUnits="userSpaceOnUse" color-interpolation-filters="sRGB">
<feFlood flood-opacity="0" result="BackgroundImageFix"/>
<feColorMatrix in="SourceAlpha" type="matrix" values="0 0 0 0 0 0 0 0 0 0 0 0 0 0 0 0 0 0 127 0"/>
<feOffset dx="4" dy="4"/>
<feGaussianBlur stdDeviation="3"/>
<feColorMatrix type="matrix" values="0 0 0 0 0 0 0 0 0 0 0 0 0 0 0 0 0 0 0.25 0"/>
<feBlend mode="normal" in2="BackgroundImageFix" result="effect1_dropShadow"/>
<feBlend mode="normal" in="SourceGraphic" in2="effect1_dropShadow" result="shape"/>
</filter>
<filter id="filter16_d" x="438" y="228" width="152" height="60" filterUnits="userSpaceOnUse" color-interpolation-filters="sRGB">
<feFlood flood-opacity="0" result="BackgroundImageFix"/>
<feColorMatrix in="SourceAlpha" type="matrix" values="0 0 0 0 0 0 0 0 0 0 0 0 0 0 0 0 0 0 127 0"/>
<feOffset dx="4" dy="4"/>
<feGaussianBlur stdDeviation="3"/>
<feColorMatrix type="matrix" values="0 0 0 0 0 0 0 0 0 0 0 0 0 0 0 0 0 0 0.25 0"/>
<feBlend mode="normal" in2="BackgroundImageFix" result="effect1_dropShadow"/>
<feBlend mode="normal" in="SourceGraphic" in2="effect1_dropShadow" result="shape"/>
</filter>
</defs>
</svg>
